<?xml version="1.0" encoding="UTF-8" standalone="no"?>
<!-- Created with Inkscape (http://www.inkscape.org/) -->

<svg
   width="296mm"
   height="210mm"
   viewBox="0 0 296 210"
   version="1.1"
   id="svg1"
   inkscape:version="1.3.2 (091e20e, 2023-11-25, custom)"
   sodipodi:docname="Multimedia Final Logo_Sumihay.svg"
   xmlns:inkscape="http://www.inkscape.org/namespaces/inkscape"
   xmlns:sodipodi="http://sodipodi.sourceforge.net/DTD/sodipodi-0.dtd"
   xmlns="http://www.w3.org/2000/svg"
   xmlns:svg="http://www.w3.org/2000/svg">
  <sodipodi:namedview
     id="namedview1"
     pagecolor="#ffffff"
     bordercolor="#000000"
     borderopacity="0.25"
     inkscape:showpageshadow="2"
     inkscape:pageopacity="0.0"
     inkscape:pagecheckerboard="0"
     inkscape:deskcolor="#d1d1d1"
     inkscape:document-units="mm"
     inkscape:zoom="1.4142136"
     inkscape:cx="573.4636"
     inkscape:cy="356.73537"
     inkscape:window-width="1920"
     inkscape:window-height="986"
     inkscape:window-x="-11"
     inkscape:window-y="-11"
     inkscape:window-maximized="1"
     inkscape:current-layer="layer1" />
  <defs
     id="defs1">
    <inkscape:path-effect
       effect="spiro"
       id="path-effect81"
       is_visible="true"
       lpeversion="1" />
    <inkscape:path-effect
       effect="simplify"
       id="path-effect80"
       is_visible="true"
       lpeversion="1.3"
       threshold="17.2414"
       steps="1"
       smooth_angles="360"
       helper_size="0"
       simplify_individual_paths="false"
       simplify_just_coalesce="false" />
    <inkscape:path-effect
       effect="spiro"
       id="path-effect79"
       is_visible="true"
       lpeversion="1" />
    <inkscape:path-effect
       effect="simplify"
       id="path-effect78"
       is_visible="true"
       lpeversion="1.3"
       threshold="17.2414"
       steps="1"
       smooth_angles="360"
       helper_size="0"
       simplify_individual_paths="false"
       simplify_just_coalesce="false" />
    <inkscape:path-effect
       effect="spiro"
       id="path-effect77"
       is_visible="true"
       lpeversion="1" />
    <inkscape:path-effect
       effect="simplify"
       id="path-effect76"
       is_visible="true"
       lpeversion="1.3"
       threshold="17.2414"
       steps="1"
       smooth_angles="360"
       helper_size="0"
       simplify_individual_paths="false"
       simplify_just_coalesce="false" />
    <inkscape:path-effect
       effect="simplify"
       id="path-effect74"
       is_visible="true"
       lpeversion="1.3"
       threshold="17.2414"
       steps="1"
       smooth_angles="360"
       helper_size="0"
       simplify_individual_paths="false"
       simplify_just_coalesce="false" />
    <inkscape:path-effect
       effect="simplify"
       id="path-effect73"
       is_visible="true"
       lpeversion="1.3"
       threshold="17.2414"
       steps="1"
       smooth_angles="360"
       helper_size="0"
       simplify_individual_paths="false"
       simplify_just_coalesce="false" />
    <inkscape:path-effect
       effect="bspline"
       id="path-effect22"
       is_visible="true"
       lpeversion="1.3"
       weight="33.333333"
       steps="2"
       helper_size="0"
       apply_no_weight="true"
       apply_with_weight="true"
       only_selected="false"
       uniform="false" />
    <linearGradient
       id="swatch17"
       inkscape:swatch="solid">
      <stop
         style="stop-color:#030303;stop-opacity:1;"
         offset="0"
         id="stop17" />
    </linearGradient>
    <linearGradient
       id="swatch16"
       inkscape:swatch="solid">
      <stop
         style="stop-color:#d45500;stop-opacity:1;"
         offset="0"
         id="stop16" />
    </linearGradient>
    <linearGradient
       id="swatch7"
       inkscape:swatch="solid">
      <stop
         style="stop-color:#d45500;stop-opacity:1;"
         offset="0"
         id="stop7" />
    </linearGradient>
  </defs>
  <g
     inkscape:label="Layer 1"
     inkscape:groupmode="layer"
     id="layer1">
    <ellipse
       style="opacity:1;fill:#ffffff;fill-opacity:1;fill-rule:evenodd;stroke:#000000;stroke-width:0.205939;stroke-linecap:butt;stroke-dasharray:none;stroke-opacity:1;paint-order:stroke fill markers"
       id="path85"
       cx="159.59192"
       cy="98.42057"
       rx="101.46473"
       ry="95.102646" />
    <ellipse
       style="fill:#d45500;fill-opacity:1;fill-rule:nonzero;stroke:#d4eeff;stroke-width:0;stroke-linecap:butt;stroke-dasharray:none;stroke-opacity:1;paint-order:stroke fill markers"
       id="path21"
       cx="148"
       cy="141.28748"
       rx="68.893761"
       ry="12.038542" />
    <ellipse
       style="fill:#f9f9f9;fill-opacity:1;fill-rule:nonzero;stroke:#d4eeff;stroke-width:0;stroke-linecap:butt;stroke-dasharray:none;stroke-opacity:1;paint-order:stroke fill markers"
       id="ellipse22"
       cx="148.59599"
       cy="141.2672"
       rx="57.837982"
       ry="8.3626347" />
    <path
       id="path1"
       style="fill:#ff7f2a;fill-rule:nonzero;stroke:#ff8585;stroke-width:0;stroke-opacity:0.0252708;fill-opacity:1"
       d="M 102.78959 85.195833 A 51.858334 43.65625 0 0 0 118.75968 130.85558 A 51.858334 43.65625 0 0 0 186.19845 130.74189 A 51.858334 43.65625 0 0 0 202.10394 85.195833 L 102.78959 85.195833 z " />
    <ellipse
       style="fill:#ff7f2a;fill-rule:nonzero;stroke:#d4eeff;stroke-width:0;stroke-opacity:1;fill-opacity:1"
       id="path3"
       cx="152.47699"
       cy="85.195778"
       rx="49.723701"
       ry="7.9742837" />
    <path
       style="fill:none;fill-rule:nonzero;stroke:#a17f00;stroke-width:0.1;stroke-dasharray:none;stroke-opacity:0.0252708"
       d="M 90.222916,77.787499 128.85208,92.604166 214.69992,84.82749 204.25833,66.674999 90.487499,69.585416 Z"
       id="path6" />
    <ellipse
       style="fill:#f9f9f9;fill-opacity:1;fill-rule:nonzero;stroke:#d4eeff;stroke-width:0;stroke-dasharray:none;stroke-opacity:1"
       id="path17"
       cx="152.47699"
       cy="85.497246"
       rx="46.3316"
       ry="5.5561461" />
    <ellipse
       style="fill:#ff7f2a;fill-opacity:1;fill-rule:nonzero;stroke:#d4eeff;stroke-width:0;stroke-dasharray:none;stroke-opacity:1"
       id="ellipse17"
       cx="160.54678"
       cy="85.497246"
       rx="30.588892"
       ry="3.9317589" />
    <ellipse
       style="fill:#f9f9f9;fill-opacity:1;fill-rule:nonzero;stroke:#d4eeff;stroke-width:0;stroke-dasharray:none;stroke-opacity:1"
       id="ellipse18"
       cx="154.19691"
       cy="85.55574"
       rx="31.514933"
       ry="3.0057425" />
    <ellipse
       style="fill:#ff7f2a;fill-opacity:1;fill-rule:nonzero;stroke:#d4eeff;stroke-width:0;stroke-dasharray:none;stroke-opacity:1"
       id="path19"
       cx="224.20645"
       cy="94.79744"
       rx="21.012995"
       ry="18.49527"
       transform="matrix(0.99866218,0.05170928,-0.17067894,0.9853267,0,0)" />
    <path
       id="ellipse19"
       style="fill:#f9f9f9;fill-opacity:1;fill-rule:nonzero;stroke:#d4eeff;stroke-width:0;stroke-linecap:butt;stroke-dasharray:none;stroke-opacity:1;paint-order:stroke fill markers"
       d="m 200.01641,93.733476 c -4.42007,1.228321 -8.78308,3.373073 -12.29485,6.517134 -3.11437,2.75652 -5.54989,6.41016 -6.05069,10.18137 -0.48382,3.2846 0.62294,6.42443 2.76156,8.61817 2.51428,2.63966 6.21756,4.08672 10.12606,4.59855 5.208,0.63104 10.89616,-0.30525 16.08427,-2.66289 4.26832,-1.92298 8.26635,-4.89339 10.89814,-8.71258 1.7013,-2.49568 2.69464,-5.35625 2.62114,-8.08221 -0.0757,-2.89946 -1.4137,-5.46872 -3.43182,-7.296985 -2.36966,-2.173939 -5.55371,-3.418859 -8.91425,-3.943676 -3.71223,-0.593258 -7.85451,-0.27301 -11.79956,0.783117 z" />
    <path
       id="path20"
       style="fill:#ff7f2a;fill-opacity:1;fill-rule:nonzero;stroke:#ff8585;stroke-width:0;stroke-opacity:0.0252708"
       d="m 114.90848,92.139872 c -5.21,14.017758 0.34832,29.185908 14.18091,38.698428 17.26542,11.82499 39.90275,11.78407 57.10906,-0.0964 15.85375,-11.96272 19.58361,-24.56657 16.89792,-38.602078 l -88.18789,6e-5 z"
       sodipodi:nodetypes="cccccc" />
    <path
       style="fill:#ffffff;fill-opacity:1;fill-rule:nonzero;stroke:#d4eeff;stroke-width:0;stroke-linecap:butt;stroke-dasharray:none;stroke-opacity:1;paint-order:stroke fill markers"
       d="m 257.74826,60.18657 c 8.59896,0.83171 12.21493,8.93331 11.99441,12.328788 -0.22052,3.395477 -4.2774,2.08486 -1.23459,3.671948 3.04281,1.587089 13.18498,6.071727 14.68421,8.761637 1.49924,2.68991 -5.64438,3.584977 -4.95019,6.32565 0.69419,2.740672 9.22594,7.326733 7.37158,11.289717 -1.85437,3.96298 -14.09433,7.30257 -13.98633,12.35786 0.10801,5.05529 12.56398,11.82567 13.09532,18.51236 0.53135,6.68669 -10.86222,13.28903 -13.51635,20.00787 -2.65412,6.71884 3.43117,13.55377 0.69704,20.23457 -2.73414,6.68079 -14.28739,13.20705 -26.66901,6.019 -12.38163,-7.18806 -25.59087,-28.08972 -29.60367,-48.28645 -4.01279,-20.19672 1.17092,-39.687299 10.55393,-52.651947 9.38302,-12.964648 22.96469,-19.402712 31.56365,-18.571003 z"
       id="path22"
       transform="matrix(1.2258086,0,0,0.89863453,-188.33656,18.498822)"
       sodipodi:nodetypes="cccccccccccccc"
       inkscape:original-d="m 262.73125,52.916666 c 3.61598,8.10161 7.23193,16.203218 10.84791,24.304828 -4.05701,-1.310663 -8.11389,-2.621274 -12.17083,-3.931912 10.14256,4.484815 20.28473,8.969449 30.42708,13.454171 -7.14388,0.895102 -14.2875,1.790168 -21.43125,2.685251 8.53213,4.586256 17.06388,9.172329 25.59585,13.758496 -12.2407,3.33979 -24.48066,6.67938 -36.72137,10.01918 12.45672,6.77078 24.91269,13.54116 37.3694,20.31194 -11.39402,6.6026 -22.78759,13.20494 -34.18138,19.8074 6.08555,6.83521 12.17084,13.67015 18.25625,20.50523 -11.55369,6.52652 -23.10694,13.05277 -34.66041,19.57916 -13.20978,-20.9025 -26.41902,-41.80416 -39.62853,-62.70624 5.18392,-19.49137 10.36763,-38.981948 15.55144,-58.472921 13.58222,-6.438323 27.16389,-12.87639 40.74584,-19.314583 z"
       inkscape:path-effect="#path-effect22" />
    <text
       xml:space="preserve"
       style="font-size:36px;line-height:0.4;font-family:Gabriola;-inkscape-font-specification:'Gabriola, Normal';opacity:1;fill:#000000;fill-opacity:1;fill-rule:nonzero;stroke:#d4eeff;stroke-width:0;stroke-linecap:butt;stroke-dasharray:none;stroke-opacity:1;paint-order:stroke fill markers"
       x="129.2749"
       y="112.194"
       id="text40"><tspan
         sodipodi:role="line"
         id="tspan40"
         style="line-height:0.4;fill:#000000;stroke-width:0"
         x="129.2749"
         y="112.194">ara</tspan><tspan
         sodipodi:role="line"
         style="line-height:0.4;fill:#000000;stroke-width:0"
         x="129.2749"
         y="126.594"
         id="tspan41">ea</tspan></text>
    <text
       xml:space="preserve"
       style="font-size:71.091px;line-height:0.4;font-family:Gabriola;-inkscape-font-specification:'Gabriola, Normal';opacity:1;fill:#000000;fill-opacity:1;fill-rule:nonzero;stroke:#d4eeff;stroke-width:0;stroke-linecap:butt;stroke-dasharray:none;stroke-opacity:1;paint-order:stroke fill markers"
       x="132.72195"
       y="118.19694"
       id="text42"
       transform="scale(0.84992738,1.1765711)"><tspan
         sodipodi:role="line"
         id="tspan42"
         style="stroke-width:0"
         x="132.72195"
         y="118.19694">T</tspan></text>
    <path
       style="opacity:1;fill:#ffb380;fill-opacity:1;fill-rule:nonzero;stroke:#d4eeff;stroke-width:0;stroke-linecap:butt;stroke-dasharray:none;stroke-opacity:1;paint-order:stroke fill markers"
       d="m 593.25915,528.62112 c -4.17281,-8.75047 -14.25256,-17.06485 -40.75915,-33.6206 -9.075,-5.66815 -19.2843,-12.37456 -22.68734,-14.90312 l -6.18733,-4.5974 2.63074,-2.75659 c 1.93664,-2.02928 2.3362,-3.05114 1.51438,-3.87296 -0.82181,-0.82181 -1.90299,-0.55623 -4.09778,1.00659 -1.63977,1.16763 -3.25606,2.12296 -3.59174,2.12296 -1.21063,0 -4.57354,-6.55465 -4.57719,-8.92142 -0.005,-3.24139 6.82723,-9.67346 14.73424,-13.87126 5.96024,-3.16427 6.3005,-3.22821 8.72478,-1.63976 1.62127,1.06229 3.44407,1.42166 5.10129,1.00572 2.2193,-0.55701 2.49268,-1.03851 1.96185,-3.45537 -0.59283,-2.69911 -0.35286,-2.90688 6.17866,-5.34946 6.12362,-2.29005 6.91902,-2.38533 8.04544,-0.96374 0.6875,0.86765 1.25,4.09793 1.25,7.17839 v 5.60084 l -8.44931,1.59514 c -4.64712,0.87733 -10.09348,2.6113 -12.10301,3.85326 -12.79611,7.90843 -8.11022,25.96535 6.02708,23.22516 1.76253,-0.34162 5.15103,-2.75285 8.31522,-5.91704 2.93725,-2.93725 5.53611,-5.34046 5.77524,-5.34046 0.23913,0 0.43478,0.92958 0.43478,2.06574 0,2.52979 1.78336,6.01711 3.91334,7.65246 4.14618,3.18333 17.94657,-0.31373 16.46583,-4.17249 -0.43186,-1.1254 -1.04546,-1.25949 -2.41339,-0.5274 -3.24935,1.739 -6.82047,1.13309 -8.50884,-1.44368 -1.32534,-2.02272 -1.53669,-5.15048 -1.27305,-18.83982 0.23296,-12.09673 -0.0143,-16.81427 -0.94001,-17.93447 -1.08472,-1.31261 0.16222,-2.08496 9.13827,-5.66018 C 583.59907,427.86307 589.38431,426 590.73824,426 c 3.32483,0 9.95473,-4.95813 12.81209,-9.58143 1.2824,-2.07497 2.43384,-3.3555 2.55876,-2.84562 0.12492,0.50988 0.51339,2.63601 0.86328,4.72475 0.72653,4.33726 5.03716,7.69223 9.89148,7.69856 3.39308,0.004 10.83599,-3.9283 10.29701,-5.44079 -0.38258,-1.07361 -1.21386,-1.0778 -5.66086,-0.0285 -1.49318,0.35232 -3.30546,-0.007 -4.5,-0.8915 -1.87101,-1.38583 -2,-2.64183 -2,-19.47451 0,-17.60938 -0.0511,-18.04763 -2.39705,-20.54801 -4.60002,-4.90289 -12.21874,-5.60617 -21.10295,-1.94799 -7.11126,2.92815 -11.90053,10.34014 -8.96601,13.87603 1.99484,2.40363 -0.16425,1.61377 -7.03399,-2.57325 -5.51266,-3.3599 -6.09125,-3.96213 -3.80902,-3.96469 1.48004,-0.002 2.9691,0.44698 3.30902,0.99698 1.01377,1.64031 2.3554,1.15032 4.08718,-1.49271 2.21662,-3.38298 1.16242,-6.95415 -2.50074,-8.47149 -3.4394,-1.42464 -6.35948,-0.72262 -10.7868,2.5933 l -3.20036,2.39696 -3.54964,-3.11662 C 557.09734,376.1953 555.5,373.9584 555.5,372.93856 c 0,-2.2926 5.71698,-5.70452 16.5,-9.84729 15.85606,-6.09179 18.14977,-9.43485 10.34996,-15.085 -2.28252,-1.65345 -3.52002,-3.01293 -2.75,-3.02107 17.9907,-0.19021 72.31433,-2.3618 87.3368,-3.4913 53.10463,-3.99279 84.56324,-10.63666 84.56324,-17.85924 0,-4.4026 -4.99944,-7.05926 -19.84203,-10.54389 -33.88381,-7.95497 -93.23581,-11.63937 -174.89768,-10.85713 l -52.23972,0.5004 -0.98318,-3.56079 c -0.54075,-1.95844 -0.7832,-3.76077 -0.53879,-4.00519 2.37302,-2.37301 101.06921,-3.34998 133.0014,-1.31654 63.67082,4.05454 106.58402,11.47409 121.65915,21.03446 4.10413,2.60276 4.84418,3.6356 6.29235,8.78185 2.40683,8.55292 2.38691,8.5161 4.29357,7.9378 11.41559,-3.46238 30.25808,-4.00681 42.75493,-1.23535 4.43019,0.98249 12.56077,3.97462 18.22074,6.70541 8.2764,3.99314 11.61761,6.31008 17.56359,12.17938 8.26947,8.1628 14.67616,19.42068 16.75747,29.4463 1.69645,8.17174 0.7432,23.25472 -1.97808,31.29863 -9.94757,29.40426 -42.41609,52.86186 -75.56372,54.59267 l -9,0.46994 8,-2.86341 c 18.36581,-6.5736 30.56976,-14.12974 43.02185,-26.63722 16.84456,-16.91947 22.98066,-35.13019 17.62995,-52.32208 -4.93453,-15.85466 -19.78655,-27.22208 -41.35964,-31.65578 -7.76631,-1.59614 -25.99099,-2.10755 -33.12122,-0.92944 -3.28827,0.54331 -3.74855,0.93015 -3.25899,2.73899 1.80725,6.67746 2.64589,25.46825 1.60392,35.93784 -3.15619,31.71313 -15.93832,57.34473 -41.4343,83.08692 -17.17339,17.33922 -31.71732,27.72133 -54.08157,38.60589 -22.58465,10.99182 -50.35588,19.06073 -71.00229,20.62968 l -8.0023,0.6081 z"
       id="path42"
       transform="scale(0.26458333)" />
    <path
       style="opacity:1;fill:#ffb380;fill-opacity:1;fill-rule:nonzero;stroke:#d4eeff;stroke-width:0;stroke-linecap:butt;stroke-dasharray:none;stroke-opacity:1;paint-order:stroke fill markers"
       d="m 559.5,572.75396 9.5,-6.44681 26.5,-0.70226 c 76.51022,-2.02756 135.04536,-8.57985 166.41352,-18.62797 21.50871,-6.88985 24.3502,-15.87332 7.42349,-23.46958 -11.60975,-5.21014 -43.52253,-11.836 -69.83701,-14.49983 -6.325,-0.64028 -12.14679,-1.37213 -12.93731,-1.62632 -0.86662,-0.27867 1.71421,-2.49563 6.5,-5.58358 9.21033,-5.94281 7.46692,-5.82461 32.43731,-2.19905 43.15669,6.26611 75.07583,15.35727 87.68404,24.97402 9.9452,7.58557 7.39425,15.55453 -7.42538,23.19631 C 771.65382,565.35515 689.49969,576.75644 583.5,578.61377 l -33.5,0.58699 z"
       id="path43"
       transform="scale(0.26458333)" />
    <path
       style="opacity:1;fill:#ffb380;fill-opacity:1;fill-rule:nonzero;stroke:#d4eeff;stroke-width:0;stroke-linecap:butt;stroke-dasharray:none;stroke-opacity:1;paint-order:stroke fill markers"
       d="M 588.32958,396.88102 584,394.00856 l 3.86663,-0.004 c 3.52743,-0.004 3.81185,-0.20166 3.24219,-2.25428 -0.34345,-1.2375 -0.87362,-3.17845 -1.17817,-4.31323 -0.94212,-3.51048 2.69133,-6.89132 7.40622,-6.89132 7.03519,0 10.83392,5.54611 9.48638,13.85002 -0.52528,3.2369 -0.90306,3.60696 -3.70409,3.62839 -1.71554,0.0131 -4.77085,0.40765 -6.78958,0.87674 -3.17165,0.73698 -4.25875,0.46255 -8,-2.01958 z"
       id="path44"
       transform="scale(0.26458333)" />
    <path
       style="opacity:1;fill:#ffb380;fill-opacity:1;fill-rule:nonzero;stroke:#d4eeff;stroke-width:0;stroke-linecap:butt;stroke-dasharray:none;stroke-opacity:1;paint-order:stroke fill markers"
       d="m 601.57887,410.82673 c -0.0434,-0.92031 -1.24309,-3.05688 -2.66603,-4.74794 -2.98062,-3.54227 -2.07895,-4.42901 3.96096,-3.89542 l 3.58412,0.31663 -2.40009,5 c -1.32005,2.75 -2.43558,4.24703 -2.47896,3.32673 z"
       id="path45"
       transform="scale(0.26458333)" />
    <path
       style="opacity:1;fill:#ffb380;fill-opacity:1;fill-rule:nonzero;stroke:#d4eeff;stroke-width:0;stroke-linecap:butt;stroke-dasharray:none;stroke-opacity:1;paint-order:stroke fill markers"
       d="m 543.53518,471.06574 c -3.5876,-6.70349 1.69473,-13.00294 12.228,-14.5825 4.02556,-0.60367 4.73682,-0.46206 4.73682,0.94305 0,1.74873 -3.08619,8.01831 -5.22748,10.6196 -3.98492,4.84098 -9.94238,6.37375 -11.73734,3.01985 z"
       id="path46"
       transform="scale(0.26458333)" />
    <path
       style="opacity:1;fill:#ffb380;fill-opacity:1;fill-rule:nonzero;stroke:#d4eeff;stroke-width:0;stroke-linecap:butt;stroke-dasharray:none;stroke-opacity:1;paint-order:stroke fill markers"
       d="m 559.5,336 c -3.025,-0.3707 8.225,-0.75166 25,-0.84656 68.92913,-0.38998 118,-5.30249 118,-11.81305 0,-3.31172 -13.68892,-6.37256 -40,-8.94399 -11.43727,-1.11778 -32.76211,-1.81214 -69.5,-2.26301 -46.54768,-0.57126 -51.41736,-0.77115 -40,-1.64192 22.40801,-1.70899 99.24024,-1.1545 119.33448,0.86122 28.97513,2.9066 45.97992,6.74132 48.56011,10.95072 0.89166,1.45469 0.71868,2.03479 -0.89459,3 -8.74609,5.23275 -32.48014,9.01329 -67.15558,10.69706 C 630.95746,337.06326 568.17377,337.06294 559.5,336 Z"
       id="path47"
       transform="scale(0.26458333)" />
    <path
       style="opacity:1;fill:#ffb380;fill-opacity:1;fill-rule:nonzero;stroke:#d4eeff;stroke-width:0;stroke-linecap:butt;stroke-dasharray:none;stroke-opacity:1;paint-order:stroke fill markers"
       d=""
       id="path48"
       transform="scale(0.26458333)" />
    <path
       style="opacity:1;fill:#ffb380;fill-opacity:1;fill-rule:nonzero;stroke:#d4eeff;stroke-width:0;stroke-linecap:butt;stroke-dasharray:none;stroke-opacity:1;paint-order:stroke fill markers"
       d="M 593.85303,528.70274 C 589.22968,519.7256 580.31696,512.22003 555,495.98388 c -8.8,-5.64357 -19.25502,-12.49971 -23.23337,-15.23586 l -7.23338,-4.97483 1.98338,-2.52145 c 3.76927,-4.79186 1.56377,-6.98859 -3.61179,-3.59743 -2.22413,1.4573 -2.70027,1.47883 -3.99836,0.18074 -0.81046,-0.81045 -1.74427,-3.14173 -2.07513,-5.18061 -0.54732,-3.37271 -0.23655,-4.05429 3.44561,-7.55705 2.22596,-2.1175 6.58362,-5.3012 9.68371,-7.07489 5.02267,-2.87368 5.9476,-3.09603 8.49298,-2.0417 4.56692,1.89168 7.45011,1.00371 8.04944,-2.47909 0.44218,-2.56957 1.35461,-3.33106 6.38099,-5.32545 3.22576,-1.27994 6.2206,-1.9557 6.6552,-1.50171 0.43459,0.454 1.09977,3.36795 1.47817,6.47546 0.77665,6.37796 1.38307,5.83931 -8.86197,7.87164 -8.33202,1.65284 -11.92496,3.38231 -15.51047,7.46598 -2.53337,2.88534 -3.14501,4.46001 -3.14501,8.09683 0,5.5391 1.99914,9.63849 5.47206,11.22085 5.57101,2.53833 10.52601,0.96828 16.47411,-5.21999 3.79451,-3.94773 6.05383,-4.58971 6.05383,-1.72018 0,1.02583 0.93266,3.05083 2.07258,4.5 1.7413,2.2137 2.86532,2.63486 7.03212,2.63486 2.72775,0 6.52008,-0.65204 8.42742,-1.44897 5.18621,-2.16694 4.42085,-6.62425 -0.79681,-4.64049 -1.62892,0.61931 -3.22585,0.53026 -4.83392,-0.26957 -2.37728,-1.18242 -2.40697,-1.38487 -2.95742,-20.16769 -0.37496,-12.79458 -0.21213,-19.21355 0.5,-19.71108 1.98153,-1.38441 16.41564,-6.64524 20.15956,-7.3476 2.59015,-0.48592 5.37159,-2.28651 9.0789,-5.87732 5.4795,-5.30731 6.31757,-5.61159 6.31757,-2.29369 0,1.05064 1.31538,3.22564 2.92308,4.83333 3.4748,3.4748 8.61067,3.90223 14.07692,1.17153 5.23786,-2.61661 4.65049,-4.82844 -1.17468,-4.42345 -3.85472,0.268 -4.86329,-0.0274 -5.75,-1.68426 -0.63949,-1.1949 -1.07532,-8.54083 -1.07532,-18.12466 0,-12.15224 -0.35805,-16.8078 -1.45595,-18.93089 C 608.10469,369.59972 581.5,376.34336 581.5,389.33431 v 2.59824 l -3.73725,-2.20503 c -3.09121,-1.82386 -3.39804,-2.27037 -1.77494,-2.58295 4.61729,-0.8892 6.13258,-7.89619 2.28968,-10.58787 -3.17994,-2.22731 -6.46281,-1.93116 -11.5335,1.04046 l -4.43172,2.59717 -2.94615,-2.82259 c -4.22149,-4.04445 -3.43687,-6.13704 3.63388,-9.69164 3.3,-1.65897 6.15094,-3.39346 6.33541,-3.85443 0.18448,-0.46097 0.72637,-0.5965 1.20421,-0.30118 1.59656,0.98673 13.73444,-5.25003 15.51945,-7.97429 1.72853,-2.63807 1.71373,-2.6865 -1.97477,-6.46387 l -3.71634,-3.80588 19.31602,-0.57248 C 610.30779,344.39311 624.85,343.86486 632,343.53409 c 7.15,-0.33077 13.9,-0.58076 15,-0.55553 4.77092,0.10941 35.94715,-2.28652 46,-3.53516 6.05,-0.75146 13.475,-1.62232 16.5,-1.93526 11.228,-1.16152 30.61951,-5.62548 36,-8.28725 4.70758,-2.32887 5.54354,-3.16764 5.80223,-5.82166 0.232,-2.38028 -0.26622,-3.47323 -2.14421,-4.70373 -5.96013,-3.90523 -23.60027,-8.06705 -47.23466,-11.14401 C 690.687,306.08863 652.06023,303.02935 643,302.88471 c -2.2,-0.0351 -34.13428,-0.27033 -70.96506,-0.52268 -36.83079,-0.25236 -67.0886,-0.58236 -67.23959,-0.73334 -0.15098,-0.15099 -0.54899,-1.64689 -0.88446,-3.32422 l -0.60993,-3.04969 6.34952,-0.56178 c 3.49224,-0.30898 26.82452,-0.83371 51.84952,-1.16607 25.025,-0.33236 46.75987,-0.80511 48.29971,-1.05055 1.53984,-0.24545 2.56827,-0.0718 2.2854,0.38591 -0.28287,0.4577 7.68226,1.10678 17.70029,1.44241 29.59399,0.99146 69.60198,5.31623 93.87924,10.14813 6.71786,1.33706 12.5406,2.22934 12.93942,1.98286 0.39881,-0.24648 0.87605,-0.0837 1.06053,0.36176 0.18448,0.44546 3.8213,2.03749 8.08183,3.53785 13.81652,4.86553 16.00059,6.83815 18.72788,16.9147 0.70709,2.6125 1.78964,4.74171 2.40566,4.73157 0.61602,-0.0101 4.94504,-0.71046 9.62004,-1.55628 8.01672,-1.45043 32.98523,-1.74002 32.99578,-0.38269 0.002,0.29842 2.14172,1.10349 4.75422,1.78904 2.6125,0.68555 9.35591,3.48365 14.98535,6.218 16.03957,7.79079 27.20778,20.22348 32.24829,35.89947 2.019,6.27911 2.22843,8.52397 1.80309,19.32757 -0.52569,13.35257 -2.17146,18.97257 -8.93212,30.50152 -4.84037,8.25429 -18.87437,21.7775 -28.64404,27.60151 -10.83508,6.45913 -25.54844,11.45805 -35.7859,12.15839 L 782,464.08022 l 6,-2.40097 c 9.81144,-3.92617 20.63531,-9.62506 26.5,-13.95255 6.93916,-5.12033 19.97306,-17.82056 19.98841,-19.4767 0.006,-0.6875 0.42691,-1.25 0.93451,-1.25 1.62594,0 8.07351,-11.2982 9.98677,-17.5 3.0194,-9.78734 2.26632,-29.5 -1.12699,-29.5 -0.49541,0 -0.6633,-0.38417 -0.37311,-0.85372 0.89286,-1.44467 -4.78142,-9.40249 -10.13275,-14.21055 -5.41777,-4.86775 -17.60598,-11.46838 -19.27356,-10.43776 -0.5518,0.34104 -1.00328,0.18839 -1.00328,-0.33921 0,-1.17894 -9.52669,-3.56931 -10.88343,-2.7308 -0.53811,0.33256 -1.26103,0.14732 -1.60649,-0.41165 -0.75891,-1.22793 -30.39626,-1.37503 -32.31124,-0.16036 -1.03811,0.65847 -1.08865,2.52008 -0.25,9.20845 3.23655,25.81197 -0.71247,49.75632 -11.94643,72.4356 -7.10054,14.33467 -16.09538,26.60303 -28.99168,39.54274 -17.85259,17.91267 -30.59495,26.99166 -53.2846,37.9655 -25.03707,12.10918 -48.50363,18.93864 -73.47489,21.38337 -5.09853,0.49916 -5.29597,0.4222 -6.89821,-2.68887 z"
       id="path49"
       transform="scale(0.26458333)" />
    <path
       style="opacity:1;fill:#ffb380;fill-opacity:1;fill-rule:nonzero;stroke:#d4eeff;stroke-width:0;stroke-linecap:butt;stroke-dasharray:none;stroke-opacity:1;paint-order:stroke fill markers"
       d="m 593.13094,527.63321 c -5.47448,-9.34149 -11.64067,-14.24608 -47.40223,-37.70376 l -21.2713,-13.95283 2.21443,-2.99518 c 3.00296,-4.06172 1.38004,-5.83531 -3.18126,-3.47657 -3.98641,2.06145 -5.7439,0.79011 -6.65312,-4.81277 -0.53846,-3.31817 -0.21627,-4.02942 3.36614,-7.43075 4.84033,-4.59567 9.2964,-8.26736 9.2964,-7.66 0,0.2475 1.39621,-0.272 3.10269,-1.15445 2.51524,-1.30068 3.63329,-1.38469 5.90506,-0.44369 4.51515,1.87024 7.39827,0.9682 7.99534,-2.5015 0.44218,-2.56957 1.35461,-3.33106 6.38099,-5.32545 3.22576,-1.27994 6.2206,-1.9557 6.6552,-1.50171 0.43459,0.454 1.10278,3.39202 1.48485,6.52894 0.69114,5.67431 0.68007,5.70673 -2.16472,6.33879 -16.03401,3.56244 -19.56312,5.15237 -23.10601,10.40967 -4.85927,7.21067 -1.4804,17.16443 6.32355,18.62846 4.50732,0.84558 8.22665,-0.77086 12.98414,-5.64297 4.17498,-4.27557 6.43891,-5.00419 6.43891,-2.0723 0,1.02583 0.97037,3.09877 2.15638,4.60654 2.02329,2.5722 2.54921,2.71638 8.52095,2.33613 4.86127,-0.30954 6.88188,-0.92258 8.55473,-2.59543 2.73066,-2.73065 1.33955,-4.75635 -2.31922,-3.37719 -2.7089,1.02111 -6.73572,-0.10495 -7.37074,-2.06117 -0.22747,-0.70071 -0.57775,-9.48189 -0.7784,-19.51373 l -0.36483,-18.23971 7.05057,-2.89956 c 3.87781,-1.59475 9.74642,-3.66846 13.04135,-4.60822 4.60968,-1.31476 7.08523,-2.80311 10.7381,-6.45597 4.86269,-4.86269 5.77111,-5.14811 5.77111,-1.81324 0,1.05064 1.31538,3.22564 2.92308,4.83333 3.50899,3.50899 8.76032,3.91407 14.03923,1.08296 5.2646,-2.82344 4.99352,-4.15988 -0.84379,-4.15988 -3.9675,0 -5.26975,-0.41406 -6.08334,-1.93426 -0.58517,-1.0934 -1.03518,-8.63612 -1.03518,-17.35078 0,-8.47908 -0.46878,-16.72116 -1.04173,-18.31574 -1.76174,-4.90307 -5.54832,-6.90567 -12.95827,-6.85317 -10.20221,0.0723 -18.64706,5.54476 -19.90388,12.89823 L 581,391.93206 l -3.40706,-2.16368 c -2.23249,-1.41775 -2.92198,-2.31289 -2,-2.59651 4.86324,-1.49604 6.35682,-6.72211 2.90706,-10.17187 -2.70493,-2.70493 -6.44565,-2.51491 -11.75601,0.59716 l -4.43172,2.59717 -2.94615,-2.82259 c -4.17348,-3.99845 -3.44159,-6.23221 3.13388,-9.56486 3.025,-1.53315 5.95974,-3.16366 6.52165,-3.62333 0.56191,-0.45968 1.46191,-0.70651 2,-0.54851 1.71979,0.50497 13.71744,-6.05342 15.19385,-8.30556 1.31033,-1.9988 1.14173,-2.48175 -2.13107,-6.10435 l -3.55398,-3.93382 19.23478,-0.59198 c 20.18756,-0.62129 36.85525,-1.27112 55.23477,-2.15344 13.52661,-0.64935 45.45227,-3.45011 47.5,-4.16706 0.825,-0.28885 3.975,-0.73239 7,-0.98565 6.8673,-0.57494 23.85916,-3.94749 30.5,-6.05364 11.1612,-3.53978 14.37921,-7.92959 8.94591,-12.20343 C 740.1681,312.23148 699.91692,305.74448 651,303.35084 c -7.15,-0.34987 -42.92117,-0.8306 -79.49148,-1.0683 -36.57032,-0.23769 -66.60313,-0.54381 -66.73958,-0.68027 -0.13646,-0.13646 -0.52076,-1.61139 -0.85401,-3.27764 l -0.60591,-3.02953 6.34549,-0.57673 c 9.03636,-0.8213 51.15213,-1.67686 79.34549,-1.61187 38.46551,0.0887 67.09826,1.92026 103.5,6.62072 11.275,1.45591 21.9625,2.67539 23.75,2.70995 1.7875,0.0346 3.25,0.32826 3.25,0.65268 0,0.55633 12.7674,3.31492 16,3.45703 0.825,0.0363 2.54766,0.63771 3.82814,1.33654 1.28048,0.69882 2.96798,1.02506 3.75,0.72497 0.78202,-0.30009 1.42186,-0.21995 1.42186,0.17809 0,0.39804 2.68588,1.76518 5.96862,3.03809 8.05749,3.12436 11.5076,6.56587 13.51919,13.4855 0.90385,3.10913 2.03324,5.89392 2.50976,6.18843 0.47652,0.2945 4.8345,-0.17258 9.68441,-1.03797 8.30517,-1.48193 33.30847,-1.79559 33.31532,-0.41793 0.001,0.29842 2.1402,1.10349 4.7527,1.78904 7.78882,2.04387 24.37752,10.70372 29.95066,15.63522 6.62534,5.86257 14.43311,17.5118 17.17105,25.61929 2.38798,7.07118 2.90611,21.51388 1.1131,31.02736 -2.13861,11.3472 -11.0019,26.03826 -21.78604,36.11074 -14.20725,13.26971 -38.10867,23.73963 -54.19877,23.74156 l -4.5,5.5e-4 8.39145,-3.40304 c 4.6153,-1.87166 8.77091,-4.00159 9.23469,-4.73317 0.46378,-0.73158 0.85013,-0.98109 0.85855,-0.55447 0.0207,1.04688 5.26476,-1.7181 12.32776,-6.49988 4.82991,-3.26994 18.40897,-16.07376 23.09427,-21.7758 6.80653,-8.28359 10.59789,-17.89812 11.28791,-28.62513 C 847.73473,389.9784 846.18522,380 844.34124,380 c -0.5276,0 -0.72184,-0.38417 -0.43165,-0.85372 0.8939,-1.44635 -4.80448,-9.44313 -9.98773,-14.01623 -4.53854,-4.00427 -17.38005,-11.36025 -19.15684,-10.97358 -0.42076,0.0916 -2.09742,-0.38112 -3.72592,-1.05042 -1.62849,-0.6693 -4.77849,-1.484 -7,-1.81044 -6.8968,-1.01344 -33.96914,-1.3827 -35.32971,-0.48188 -1.04021,0.68872 -1.06507,2.68134 -0.12812,10.27039 1.81836,14.72814 0.65876,33.03263 -3.0019,47.38528 C 755.49707,448 721.83896,486.3734 678,508.31811 651.82554,521.4204 628.82473,528.32117 600.8569,531.4628 l -5.14311,0.57772 z"
       id="path50"
       transform="scale(0.26458333)" />
    <path
       style="opacity:1;fill:#ffb380;fill-opacity:1;fill-rule:nonzero;stroke:#d4eeff;stroke-width:0;stroke-linecap:butt;stroke-dasharray:none;stroke-opacity:1;paint-order:stroke fill markers"
       d="m 593.18325,527.72249 c -4.5406,-7.74797 -15.22929,-16.40668 -42.33396,-34.29397 l -26.46118,-17.46264 2.1789,-3.05999 c 2.91075,-4.08777 1.39407,-5.7128 -3.14242,-3.3669 -3.22096,1.66563 -3.35133,1.65223 -5.1149,-0.52568 -3.09922,-3.82739 -2.35926,-8.2964 2.01125,-12.14695 6.55742,-5.77727 9.17906,-7.87197 9.17906,-7.33407 0,0.28549 1.37755,-0.19329 3.06123,-1.06395 2.48671,-1.28593 3.70367,-1.37101 6.4843,-0.45331 4.48839,1.4813 7.45447,0.50249 7.45447,-2.45997 0,-1.2706 0.5625,-2.7515 1.25,-3.29089 2.1382,-1.67758 11.0983,-4.31587 11.90791,-3.50626 0.42296,0.42296 1.06675,3.30227 1.43065,6.39846 0.74831,6.36698 1.78861,5.51741 -10.19211,8.32351 -3.90695,0.91508 -8.52356,2.52734 -10.25914,3.58281 -7.16125,4.35502 -9.40762,14.08574 -4.57703,19.82658 4.90385,5.82789 12.37839,4.89617 19.47715,-2.42788 3.71287,-3.83072 5.96257,-4.4372 5.96257,-1.60741 0,1.01968 1.10351,3.04468 2.45225,4.5 2.97959,3.21503 9.14381,3.59404 14.54775,0.89447 3.80994,-1.90328 4.82699,-4.93364 1.5,-4.46934 -4.58453,0.63979 -6.75139,0.39467 -7.99219,-0.90411 -0.95792,-1.00269 -1.41959,-6.44994 -1.70498,-20.11733 l -0.39137,-18.74233 7.04427,-2.89694 c 3.87435,-1.59331 9.65258,-3.64039 12.84052,-4.54905 4.33319,-1.23509 7.05528,-2.86566 10.78422,-6.45987 2.74338,-2.64427 5.13535,-4.53815 5.31549,-4.20862 0.18014,0.32953 0.62682,1.8506 0.99262,3.38016 0.78147,3.26765 5.85677,6.70982 9.90126,6.71524 3.16375,0.004 10.71016,-3.53046 10.71016,-5.01658 0,-0.53883 -2.22344,-0.97968 -4.94098,-0.97968 -2.85465,0 -5.28259,-0.52781 -5.75,-1.25 -0.44496,-0.6875 -1.03402,-9.19097 -1.30902,-18.89661 -0.55329,-19.52753 -0.90873,-20.6094 -7.71788,-23.49141 -4.14857,-1.7559 -6.72545,-1.71646 -13.18488,0.20178 -6.77612,2.0123 -12.14638,6.86038 -12.97378,11.71229 L 581,391.93206 l -3.37933,-2.14612 c -3.14786,-1.99911 -3.23796,-2.19841 -1.31537,-2.90962 4.21696,-1.55995 5.36133,-6.70969 2.1947,-9.87632 -2.70493,-2.70493 -6.44565,-2.51491 -11.75601,0.59716 l -4.43172,2.59717 -2.94615,-2.82259 c -1.67133,-1.60124 -2.82065,-3.64583 -2.65613,-4.72514 0.29582,-1.94068 11.4363,-8.84337 15.29001,-9.47376 1.1,-0.17993 4.7,-1.79265 8,-3.58382 7.33955,-3.98373 8.09736,-6.34574 3.54339,-11.04425 l -3.12587,-3.22509 19.29124,-0.66388 c 27.38918,-0.94256 41.60063,-1.49836 54.79124,-2.14286 13.45961,-0.65763 43.38671,-3.27753 47,-4.1145 1.375,-0.31851 3.90516,-0.71334 5.62257,-0.8774 18.53391,-1.7706 37.52112,-6.65134 42.12743,-10.82903 6.87083,-6.2315 -2.09547,-11.18566 -29.21647,-16.14302 -18.17172,-3.32155 -65.56533,-7.89703 -78.03353,-7.53352 -5.339,0.15566 -136.99208,-1.23854 -137.23958,-1.45336 -0.13177,-0.11437 -0.51224,-1.57123 -0.84549,-3.23748 l -0.60591,-3.02953 6.34549,-0.58199 c 19.11272,-1.75296 94.11479,-2.19622 120.84549,-0.71421 27.89522,1.54658 55.74314,4.27093 77.29922,7.56214 5.38957,0.82289 10.22707,1.23173 10.75,0.90854 0.52293,-0.32319 0.95078,-0.18312 0.95078,0.31125 0,0.72922 8.84057,2.79491 16,3.73856 0.825,0.10874 2.77526,0.71458 4.33392,1.34631 1.55865,0.63174 3.24615,0.89383 3.75,0.58244 0.50384,-0.3114 0.91608,-0.19982 0.91608,0.24793 0,0.44776 2.5875,1.82271 5.75,3.05545 8.47388,3.30309 11.02924,5.78902 13.61943,13.24939 2.54378,7.32672 1.4585,6.95178 14.63057,5.05462 8.65509,-1.24658 29.68389,-1.25118 31.5,-0.007 0.55,0.37683 3.925,1.65981 7.5,2.85107 16.55481,5.51638 28.53903,14.14202 36.79174,26.48085 7.12499,10.65275 9.20826,17.57646 9.20826,30.60351 0,16.09314 -3.83259,27.44569 -13.50925,40.01593 C 835.3575,449.00897 807.2027,464.05921 786.5,463.93918 l -4.5,-0.0261 8.5,-3.47713 c 4.675,-1.91243 8.65093,-3.92068 8.83541,-4.46278 0.18448,-0.54211 0.74698,-0.73129 1.25,-0.4204 0.50302,0.31088 0.91459,0.16369 0.91459,-0.32711 0,-0.49079 0.61417,-0.89235 1.36481,-0.89235 3.09002,0 15.77824,-9.81852 25.28011,-19.5625 10.36884,-10.63305 16.34024,-19.95208 17.82055,-27.81095 C 847.81586,397.13625 846.93884,380 844.58568,380 c -0.41379,0 -0.75235,-0.59741 -0.75235,-1.32758 0,-2.15373 -5.98422,-10.21775 -10.36544,-13.96791 -4.2681,-3.65334 -14.37202,-9.42188 -17.58022,-10.03692 -1.03822,-0.19904 -3.22007,-0.90562 -4.84857,-1.57017 -3.99864,-1.63177 -8.48579,-2.10593 -25.5391,-2.69877 -18.72776,-0.65105 -18.4244,-0.84156 -16.88187,10.60135 1.41462,10.494 0.63086,31.86608 -1.53427,41.83763 -5.17049,23.81281 -16.50496,44.65307 -35.47031,65.2179 -18.44336,19.99883 -40.10826,35.11693 -66.34327,46.29535 -22.37362,9.53313 -41.06379,14.54266 -63.89245,17.1251 l -5.62217,0.63599 z"
       id="path51"
       transform="scale(0.26458333)" />
    <path
       style="opacity:1;fill:#ffb380;fill-opacity:1;fill-rule:nonzero;stroke:#d4eeff;stroke-width:0;stroke-linecap:butt;stroke-dasharray:none;stroke-opacity:1;paint-order:stroke fill markers"
       d=""
       id="path52"
       transform="scale(0.26458333)" />
    <path
       style="opacity:1;fill:#ffb380;fill-opacity:1;fill-rule:nonzero;stroke:#d4eeff;stroke-width:0;stroke-linecap:butt;stroke-dasharray:none;stroke-opacity:1;paint-order:stroke fill markers"
       d=""
       id="path53"
       transform="scale(0.26458333)" />
    <path
       style="opacity:1;fill:#ffb380;fill-opacity:1;fill-rule:nonzero;stroke:#d4eeff;stroke-width:0;stroke-linecap:butt;stroke-dasharray:none;stroke-opacity:1;paint-order:stroke fill markers"
       d=""
       id="path54"
       transform="scale(0.26458333)" />
    <path
       style="opacity:1;fill:#ffb380;fill-opacity:1;fill-rule:nonzero;stroke:#d4eeff;stroke-width:0;stroke-linecap:butt;stroke-dasharray:none;stroke-opacity:1;paint-order:stroke fill markers"
       d="M 593.49893,528.3475 C 591.20104,524.4778 577.95507,511 576.44983,511 c -0.44384,0 -1.55984,-0.75287 -2.48001,-1.67303 -0.92017,-0.92017 -8.71481,-6.30521 -17.32143,-11.96675 -8.60661,-5.66153 -19.37133,-12.81204 -23.9216,-15.89 l -8.2732,-5.5963 2.14616,-3.014 c 2.88069,-4.04556 1.34075,-5.65619 -3.17516,-3.32093 -3.22096,1.66563 -3.35133,1.65223 -5.1149,-0.52568 -3.09922,-3.82739 -2.35926,-8.2964 2.01125,-12.14695 6.55742,-5.77727 9.17906,-7.87197 9.17906,-7.33407 0,0.28549 1.35797,-0.18316 3.01771,-1.04145 2.50595,-1.29587 3.68766,-1.35979 6.96826,-0.3769 4.39278,1.31611 7.01403,0.15238 7.01403,-3.11394 0,-0.96531 0.5625,-2.19644 1.25,-2.73583 1.85507,-1.45545 10.87422,-4.30543 11.80488,-3.73025 0.44283,0.27368 1.11974,3.01555 1.50425,6.09303 0.82054,6.56735 0.66853,6.72626 -7.99842,8.36159 -12.21532,2.30487 -19.57712,8.29697 -19.54597,15.90934 0.0198,4.84483 1.8253,8.10458 5.76244,10.40399 4.66335,2.72355 8.97576,1.62486 15.04677,-3.83349 2.73345,-2.45761 5.41751,-4.46838 5.96457,-4.46838 0.54707,0 1.27989,1.13645 1.62851,2.52544 1.02713,4.09243 4.13009,6.47456 8.43375,6.47456 5.12843,0 9.95698,-1.77229 11.21065,-4.11479 0.93834,-1.7533 0.65497,-1.89064 -3.57136,-1.73078 -7.16519,0.27102 -7.26576,-0.0109 -7.6517,-21.45227 L 570,433.90432 l 4.37202,-1.9579 c 2.40461,-1.07684 8.22565,-3.15939 12.93564,-4.62789 7.05371,-2.19924 9.42287,-3.49821 13.43691,-7.36723 l 4.87329,-4.69722 1.56502,3.91138 c 2.6578,6.6425 8.37356,8.35336 16.13701,4.83018 C 628.52275,421.6345 627.97307,420 621.97617,420 c -3.17407,0 -4.66652,-0.48925 -5.33837,-1.75 -0.51291,-0.9625 -1.09124,-9.54966 -1.28518,-19.08258 L 615,381.83483 l -3.14814,-2.81231 c -4.21513,-3.76547 -9.78598,-4.61965 -16.81055,-2.57755 -7.18897,2.08989 -12.20237,6.4746 -13.24489,11.58395 L 581,391.93218 l -3.30265,-2.09763 -3.30265,-2.09762 2.28604,-1.13972 c 1.25733,-0.62684 2.73436,-2.41449 3.2823,-3.97255 0.87482,-2.48754 0.65674,-3.12488 -1.78916,-5.22875 -3.52276,-3.03016 -5.04675,-3.0044 -11.04101,0.18659 l -4.85121,2.5825 -2.93084,-2.80792 c -1.66009,-1.59047 -2.8051,-3.63283 -2.64083,-4.71048 0.29563,-1.9394 11.43074,-8.84039 15.29001,-9.47599 2.24502,-0.36973 10.07472,-4.64653 12.75,-6.96439 2.50856,-2.17341 2.1744,-4.17314 -1.29558,-7.75324 l -3.04558,-3.14224 19.29558,-0.6973 c 19.38771,-0.70062 28.26859,-1.05938 52.29558,-2.11257 13.87089,-0.608 44.45314,-3.1727 48.34092,-4.05398 1.2875,-0.29185 4.98204,-0.76563 8.21007,-1.05285 8.65748,-0.77032 27.6027,-4.84637 34.23084,-7.36474 3.30874,-1.25716 6.459,-3.23032 7.36501,-4.61306 1.44424,-2.20419 1.44424,-2.62829 0,-4.83248 -3.26818,-4.98787 -23.89201,-10.03624 -55.14684,-13.49904 -14.84588,-1.64481 -48.68703,-4.10474 -54.5,-3.96164 -0.825,0.0203 -31.65,-0.28275 -68.5,-0.67347 -47.62113,-0.50492 -67.2125,-1.03422 -67.73469,-1.83 -0.40407,-0.61579 -0.74157,-2.068 -0.75,-3.22715 -0.0134,-1.84858 0.75267,-2.19096 6.23469,-2.78634 8.50388,-0.92358 22.72934,-1.22603 66.25,-1.40857 38.33861,-0.1608 59.72156,0.64664 89.31385,3.37255 9.52262,0.87718 17.96012,1.34688 18.75,1.04377 0.78988,-0.3031 1.43615,-0.068 1.43615,0.52255 0,0.6495 1.58021,0.92295 4,0.69219 2.2,-0.2098 4,-0.11685 4,0.20657 0,0.49891 17.178,3.02232 23.5505,3.45951 1.12777,0.0774 2.47777,0.39775 3,0.71194 0.91328,0.54948 9.25964,2.34711 14.4495,3.11214 1.375,0.20268 3.75311,0.88367 5.28469,1.51331 1.53158,0.62964 3.10658,1.06272 3.5,0.96241 0.39342,-0.10031 4.22963,1.51312 8.52491,3.58541 8.43172,4.06793 10.53957,6.43807 12.7515,14.33832 l 1.26823,4.52969 6.08534,-0.72732 c 9.2905,-1.11041 36.82865,-1.55739 38.02588,-0.61721 0.5827,0.45759 3.53445,1.6214 6.55945,2.58625 9.3916,2.99552 21.68153,9.58235 27.41687,14.69418 6.90621,6.1554 14.68396,17.69729 17.45484,25.90234 2.63988,7.8171 2.93934,24.3798 0.60298,33.3497 -5.34235,20.51067 -25.95338,42.29783 -48.31365,51.07059 -3.93857,1.54524 -7.16104,3.215 -7.16104,3.71056 0,0.49557 -0.41267,0.64599 -0.91704,0.33427 -0.50437,-0.31172 -3.76687,0.10507 -7.25,0.9262 -3.48313,0.82113 -8.58296,1.48381 -11.33296,1.47262 l -5,-0.0204 7.61188,-3.21487 c 4.18654,-1.76818 8.27794,-3.77347 9.09201,-4.45619 0.81407,-0.68273 1.77622,-0.94523 2.13812,-0.58334 0.36189,0.3619 0.65799,0.10644 0.65799,-0.56769 0,-0.67413 0.37645,-0.99302 0.83656,-0.70866 0.87456,0.54051 8.53334,-4.19603 13.63416,-8.43197 17.45554,-14.49584 28.0674,-28.73109 30.1838,-40.48997 1.23933,-6.88579 0.69727,-21.04381 -0.9242,-24.13908 -0.81767,-1.56088 -2.104,-4.16212 -2.8585,-5.78053 -3.20488,-6.87448 -19.18454,-19.50126 -26.42559,-20.88092 -1.07043,-0.20395 -3.14876,-0.86517 -4.61851,-1.46937 -3.73054,-1.53359 -9.16125,-2.12671 -25.38933,-2.7729 -12.62814,-0.50285 -14.2752,-0.37513 -16.15678,1.25291 -1.96396,1.69931 -2.0326,2.28254 -1.09602,9.31284 1.39416,10.46501 0.31018,33.65048 -2.05711,44 -6.41129,28.02946 -23.39011,54.40096 -50.04611,77.73162 -15.49701,13.56375 -40.47026,28.28908 -59.83237,35.27979 -3.4375,1.24111 -6.25,2.67283 -6.25,3.1816 0,0.50876 -0.35654,0.70467 -0.79232,0.43534 -0.43578,-0.26932 -5.94828,1.00615 -12.25,2.83438 -10.84365,3.14592 -23.52145,5.63633 -36.06586,7.08474 l -5.60818,0.64754 z"
       id="path55"
       transform="scale(0.26458333)" />
    <path
       style="opacity:1;fill:#ffb380;fill-opacity:1;fill-rule:nonzero;stroke:#d4eeff;stroke-width:0;stroke-linecap:butt;stroke-dasharray:none;stroke-opacity:1;paint-order:stroke fill markers"
       d=""
       id="path56"
       transform="scale(0.26458333)" />
    <path
       style="opacity:1;fill:#ffb380;fill-opacity:1;fill-rule:nonzero;stroke:#d4eeff;stroke-width:0;stroke-linecap:butt;stroke-dasharray:none;stroke-opacity:1;paint-order:stroke fill markers"
       d="m 593.13356,528.02246 c -2.68781,-4.06155 -13.60903,-14.95856 -18.00267,-17.96276 -1.25458,-0.85784 -11.69727,-7.82671 -23.20597,-15.48639 -11.50871,-7.65969 -22.38993,-15.02751 -24.1805,-16.37295 l -3.25557,-2.44625 2.0382,-3.29787 c 2.47261,-4.00077 1.25103,-5.16852 -3.06952,-2.93428 -2.32668,1.20318 -3.4385,1.32376 -4.45178,0.48281 -2.01859,-1.67528 -3.33321,-6.23889 -2.46967,-8.57326 0.72804,-1.96809 12.96392,-13.29869 12.96392,-12.00477 0,0.34354 1.42138,-0.1104 3.15863,-1.00877 2.6942,-1.39323 3.71866,-1.44856 6.96757,-0.37632 4.25207,1.40331 6.8738,0.2432 6.8738,-3.04165 0,-0.96531 0.5625,-2.21124 1.25,-2.76873 2.28411,-1.85218 11.03204,-4.34923 11.96572,-3.41555 0.49466,0.49466 1.158,3.40511 1.47408,6.46768 l 0.5747,5.56829 -4.38225,1.07647 c -14.95826,3.67441 -19.72364,6.11047 -22.21228,11.35491 -3.35252,7.0649 -0.81593,14.52357 5.66688,16.66309 4.37259,1.44308 8.66982,-0.15052 14.42392,-5.34899 4.29928,-3.88414 6.23923,-4.51229 6.23923,-2.02025 0,0.86731 1.31539,2.89231 2.92308,4.5 3.3538,3.3538 7.9252,3.84897 13.60904,1.47411 4.80475,-2.00756 4.80155,-5.02914 -0.005,-4.24922 -2.44878,0.39738 -4.04641,0.0675 -5.41963,-1.11916 -1.7784,-1.53676 -1.97588,-3.33003 -2.27761,-20.68265 L 570,433.5 l 9,-3.28083 c 4.95,-1.80446 10.99187,-4.00949 13.42639,-4.90007 2.43451,-0.89058 6.38385,-3.57671 8.77631,-5.96917 2.39246,-2.39246 4.56309,-4.34993 4.82362,-4.34993 0.26052,0 0.47368,0.945 0.47368,2.1 0,1.155 1.58757,3.68757 3.52792,5.62792 3.16066,3.16066 3.9454,3.47193 7.5381,2.99005 4.20258,-0.56368 8.93398,-3.07451 8.93398,-4.74102 0,-0.53732 -2.00917,-0.97695 -4.46482,-0.97695 -3.23357,0 -4.71959,-0.48259 -5.38872,-1.75 -0.50815,-0.9625 -1.09689,-9.48733 -1.30832,-18.94406 -0.36974,-16.53796 -0.47643,-17.29202 -2.79614,-19.76124 -3.40906,-3.62877 -8.99434,-4.93511 -15.30956,-3.58074 -8.8443,1.89676 -14.22675,6.39721 -15.61386,13.05528 L 581,391.98837 l -3.40586,-2.07427 -3.40585,-2.07427 2.38925,-1.19117 c 1.31408,-0.65514 2.83756,-2.46594 3.3855,-4.024 0.87482,-2.48754 0.65674,-3.12488 -1.78916,-5.22875 -3.52276,-3.03016 -5.04675,-3.0044 -11.04101,0.18659 l -4.85121,2.5825 -2.93084,-2.80792 c -1.66009,-1.59047 -2.8051,-3.63283 -2.64083,-4.71048 0.30295,-1.98741 12.64041,-9.6466 15.53879,-9.6466 1.69802,0 9.64385,-4.31815 12.50122,-6.79378 2.44488,-2.11824 2.19999,-3.62412 -1.22344,-7.52319 l -2.97344,-3.38657 18.72344,-0.70771 C 609.57445,344.19951 621.6,343.70062 626,343.4801 c 4.4,-0.22053 14.975,-0.66981 23.5,-0.99841 8.525,-0.3286 20,-1.03429 25.5,-1.5682 5.5,-0.53391 13.375,-1.22648 17.5,-1.53904 4.125,-0.31256 7.7733,-0.73655 8.10733,-0.94221 0.33402,-0.20565 3.25902,-0.65086 6.5,-0.98933 5.27224,-0.55063 14.4463,-2.09839 22.89267,-3.86225 12.10646,-2.52821 21.5,-7.15099 21.5,-10.58066 0,-5.95799 -21.42546,-11.88049 -57.52715,-15.90185 -15.04539,-1.6759 -48.16225,-4.11564 -53.47285,-3.93938 -0.825,0.0274 -31.65,-0.27966 -68.5,-0.68232 -47.69383,-0.52114 -67.2117,-1.05545 -67.73469,-1.85427 -0.40407,-0.6172 -0.74157,-2.08226 -0.75,-3.25568 -0.0135,-1.88165 0.72248,-2.21225 6.23469,-2.80056 8.75292,-0.93418 23.58923,-1.25096 66.25,-1.41453 38.34286,-0.14702 60.76559,0.70089 90.22543,3.41187 9.47398,0.87182 17.68648,1.30018 18.25,0.95191 0.56351,-0.34827 1.02457,-0.12226 1.02457,0.50226 0,0.68282 1.49497,1.0517 3.75,0.92532 2.0625,-0.11559 4.425,0.0443 5.25,0.35528 1.38431,0.52183 14.42311,2.36197 21.54523,3.04063 1.67487,0.15959 3.47487,0.53901 4,0.84315 0.52512,0.30414 3.87977,1.08914 7.45477,1.74445 3.575,0.65531 7.175,1.32083 8,1.47894 0.825,0.15811 2.75311,0.80141 4.28469,1.42956 1.53158,0.62815 3.10658,1.06214 3.5,0.96442 1.17925,-0.29292 13.53137,5.75029 16.12228,7.88774 1.32384,1.09213 3.35469,4.64685 4.513,7.89938 l 2.10603,5.91368 4.487,-0.21525 c 20.94479,-1.00476 38.22108,-1.18696 39.70855,-0.41879 0.97815,0.50515 6.05345,2.53895 11.27845,4.51955 16.64205,6.30838 26.55675,14.40183 35.25309,28.77738 5.91177,9.77249 7.05224,14.97492 6.51827,29.73402 -0.53142,14.68861 -2.72684,21.75452 -10.29763,33.14261 -8.26886,12.43814 -25.6012,26.40559 -39.22373,31.60886 -2.3375,0.89284 -4.25,1.99808 -4.25,2.45609 0,0.45802 -0.675,0.57374 -1.5,0.25716 -0.825,-0.31659 -1.5,-0.0509 -1.5,0.5904 0,0.6413 -0.3504,0.94944 -0.77867,0.68476 -0.42827,-0.26469 -3.69077,0.14295 -7.25,0.90585 -3.55923,0.76291 -8.72133,1.39742 -11.47133,1.41002 l -5,0.0229 7.79612,-3.40362 c 4.28787,-1.872 8.45037,-3.94661 9.25,-4.61024 0.79964,-0.66364 1.46077,-0.81401 1.46919,-0.33416 0.008,0.47984 0.34592,0.42244 0.75,-0.12756 0.40408,-0.55 2.75969,-2.02066 5.23469,-3.26814 6.06018,-3.05451 10.88045,-6.99773 21.11193,-17.27061 9.49822,-9.53665 16.18069,-19.77478 17.92407,-27.46125 0.62373,-2.75 1.13237,-8.88637 1.13031,-13.63638 -0.003,-7.2064 -0.44114,-9.59261 -2.64534,-14.4115 -1.45288,-3.17631 -3.90577,-7.30878 -5.45088,-9.18326 -4.89244,-5.93537 -17.85222,-14.78053 -22.7808,-15.54807 -0.98411,-0.15326 -2.33962,-0.62217 -3.01224,-1.04202 -0.67262,-0.41985 -2.69762,-0.96273 -4.5,-1.2064 -1.80238,-0.24366 -4.40205,-0.67085 -5.77705,-0.9493 -5.49491,-1.11276 -28.78901,-1.55379 -31.31631,-0.59291 l -2.63703,1.0026 0.58083,17.28362 c 0.89093,26.5114 -2.52508,43.68516 -12.7275,63.98652 -13.40619,26.67642 -38.24561,52.16446 -67.77195,69.54163 -8.87972,5.226 -25.9416,13.32817 -34.37804,16.32511 -2.0625,0.73267 -3.75,1.71829 -3.75,2.19027 0,0.47197 -0.36861,0.63031 -0.81913,0.35188 -0.45052,-0.27844 -4.38802,0.60528 -8.75,1.96383 -9.3547,2.91353 -29.20604,6.98623 -38.50759,7.90022 l -6.57672,0.64623 z"
       id="path57"
       transform="scale(0.26458333)" />
    <path
       style="opacity:1;fill:#ffb380;fill-opacity:1;fill-rule:nonzero;stroke:#d4eeff;stroke-width:0;stroke-linecap:butt;stroke-dasharray:none;stroke-opacity:1;paint-order:stroke fill markers"
       d="M 593.91894,529.35655 C 590.98393,524.61126 581.42558,515.12505 574,509.58797 c -10.87942,-8.11253 -28.79004,-19.9213 -30.21508,-19.9213 -0.7067,0 -1.28492,-0.31129 -1.28492,-0.69176 0,-0.38046 -2.5875,-2.3874 -5.75,-4.45986 -3.1625,-2.07246 -7.22782,-4.87076 -9.03405,-6.21845 l -3.28406,-2.45033 2.06668,-3.34396 c 2.42372,-3.92165 1.50255,-4.99374 -2.50452,-2.91485 -3.62713,1.88178 -5.23924,1.24818 -6.90518,-2.71392 -1.9101,-4.54281 -1.08288,-6.28498 5.78382,-12.18097 7.39923,-6.35325 12.48943,-8.40653 16.60953,-6.69994 3.42781,1.41985 7.01778,-0.0664 7.01778,-2.90537 0,-2.42181 1.48472,-3.52817 7.40817,-5.52027 3.17511,-1.06782 5.25109,-1.30773 5.87937,-0.67945 0.53417,0.53417 1.02549,3.53711 1.09184,6.6732 l 0.12062,5.70199 -7.95734,1.89513 c -13.36085,3.18202 -19.54953,8.40603 -19.53892,16.49327 0.006,4.30067 3.33569,8.97576 7.33311,10.29503 4.37259,1.44308 8.66982,-0.15052 14.42392,-5.34899 4.29928,-3.88414 6.23923,-4.51229 6.23923,-2.02025 0,0.86731 1.37509,2.95202 3.05576,4.63269 2.80053,2.80052 3.46237,3.00761 7.92365,2.47923 5.42855,-0.64293 9.02059,-2.45883 9.02059,-4.56023 0,-1.02832 -0.90406,-1.24359 -3.47239,-0.8268 -2.44945,0.39749 -4.04478,0.0678 -5.41536,-1.11916 -1.77253,-1.53504 -1.97233,-3.3494 -2.27761,-20.68265 L 570,433.5 l 9,-3.28083 c 4.95,-1.80446 10.90755,-3.97729 13.239,-4.82851 2.33145,-0.85122 6.28623,-3.53735 8.78839,-5.96917 2.50216,-2.43182 4.7571,-4.42149 5.01099,-4.42149 0.25389,0 0.46162,0.945 0.46162,2.1 0,1.155 1.58757,3.68757 3.52792,5.62792 3.16066,3.16066 3.9454,3.47193 7.5381,2.99005 4.20258,-0.56368 8.93398,-3.07451 8.93398,-4.74102 0,-0.53732 -2.00917,-0.97695 -4.46482,-0.97695 -3.23075,0 -4.72223,-0.4837 -5.39614,-1.75 -0.51223,-0.9625 -1.09056,-9.19529 -1.28518,-18.29508 -0.29226,-13.66478 -0.65851,-17.00985 -2.10386,-19.21481 -2.51099,-3.83068 -5.43806,-5.0656 -11.86329,-5.00508 -9.79627,0.0923 -18.18449,5.67335 -19.73699,13.13196 L 581,391.98837 l -3.45913,-2.10666 -3.45913,-2.10667 2.64046,-1.38348 c 3.46161,-1.81372 4.3617,-4.85147 2.34808,-7.92465 -2.49079,-3.80143 -5.72544,-4.05155 -11.53119,-0.89167 l -5.07658,2.76302 -3.02127,-2.89455 c -1.72652,-1.65412 -2.89698,-3.70988 -2.73125,-4.79711 0.30301,-1.98783 11.2275,-8.78663 16.07254,-10.00266 3.6524,-0.9167 11.77992,-5.79583 13.07526,-7.84939 0.84254,-1.33568 0.41595,-2.49263 -2.05094,-5.56234 l -3.11474,-3.87588 27.65394,-1.2091 C 623.55572,343.48222 641.85,342.70316 649,342.41598 c 7.15,-0.28718 18.175,-0.97161 24.5,-1.52095 6.325,-0.54934 14.425,-1.22321 18,-1.49747 3.575,-0.27427 7.06686,-0.68847 7.75969,-0.92044 0.69282,-0.23198 4.06782,-0.70501 7.5,-1.05116 5.34796,-0.53939 10.61135,-1.43336 23.74031,-4.03224 9.14246,-1.80976 19.34679,-6.2491 20.34528,-8.85112 0.32557,-0.84843 0.36023,-2.14645 0.077,-2.88449 -0.9336,-2.43292 -9.99568,-6.63092 -17.4223,-8.07086 -1.375,-0.2666 -3.625,-0.75312 -5,-1.08117 -14.82474,-3.53689 -54.09406,-7.89714 -80.5,-8.93828 -7.15,-0.28191 -42.25,-0.802 -78,-1.15575 -46.73607,-0.46246 -65.20643,-0.96194 -65.73469,-1.77762 -0.40407,-0.62394 -0.74157,-2.11111 -0.75,-3.30484 -0.0136,-1.93125 0.67337,-2.23937 6.23469,-2.79628 10.27857,-1.02929 27.2219,-1.40855 66.25,-1.48291 38.4486,-0.0733 62.24397,0.84389 90.7578,3.4981 9.21679,0.85794 17.17319,1.30317 17.6809,0.98939 0.50771,-0.31378 1.22464,-0.0826 1.59319,0.51372 0.36855,0.59632 2.08715,0.99135 3.8191,0.87783 1.73196,-0.11351 3.82401,0.0553 4.64901,0.37507 0.825,0.3198 5.55,1.07246 10.5,1.67258 13.95382,1.69172 25.34965,3.81903 34,6.34694 2.2,0.64291 4.225,1.19636 4.5,1.22989 1.62285,0.19787 13.89267,6.47126 15.90697,8.13302 1.32384,1.09213 3.35536,4.64685 4.51449,7.89938 l 2.10751,5.91368 3.98552,-0.18386 c 2.19203,-0.10113 11.47665,-0.50309 20.63249,-0.89324 l 16.64697,-0.70938 9.85303,3.76135 c 14.92607,5.69795 22.01099,9.97105 29.90524,18.03662 5.07001,5.18003 8.3024,9.67086 11.5,15.97719 L 863,375.2606 v 14.6197 c 0,16.71362 -1.06729,21.24313 -7.63451,32.40026 -7.86913,13.36897 -21.22333,25.36081 -36.71715,32.97138 -4.75659,2.33643 -8.78991,4.56028 -8.96295,4.94188 -0.17303,0.38161 -0.96053,0.44596 -1.75,0.14301 -0.78946,-0.30294 -1.43539,-0.0261 -1.43539,0.6152 0,0.6413 -0.3375,0.96318 -0.75,0.71528 -0.4125,-0.2479 -3.675,0.16616 -7.25,0.92014 -3.575,0.75398 -8.75,1.34979 -11.5,1.32403 -4.46773,-0.0419 -4.73387,-0.16122 -2.5,-1.12132 14.56133,-6.25835 27.37566,-13.53504 34.4958,-19.58863 10.06941,-8.56107 19.20254,-19.40766 23.59924,-28.02666 3.36044,-6.5876 3.40473,-6.84484 3.38717,-19.67487 -0.0176,-12.85982 -0.0533,-13.06166 -3.30818,-18.71875 -6.66217,-11.57893 -20.73979,-21.2729 -35.38078,-24.36352 -9.6073,-2.02803 -34.97679,-2.6584 -37.76006,-0.93824 -0.54116,0.33445 -0.69624,7.69785 -0.37478,17.79552 0.40893,12.84507 0.15673,19.76776 -0.99181,27.22499 -4.3352,28.14746 -16.94997,51.60473 -40.6666,75.6199 -18.36042,18.59154 -36.19228,30.91764 -59.5,41.12879 -6.05,2.65051 -12.575,5.55557 -14.5,6.45567 -1.925,0.9001 -4.34619,1.79097 -5.38041,1.97972 -1.03423,0.18875 -5.75749,1.46718 -10.49613,2.84096 -9.95423,2.88583 -25.67734,6.005 -35.28059,6.999 -6.55306,0.67829 -6.68475,0.64441 -8.42393,-2.16749 z"
       id="path58"
       transform="scale(0.26458333)" />
    <path
       style="opacity:1;fill:#ffb380;fill-opacity:1;fill-rule:nonzero;stroke:#d4eeff;stroke-width:0;stroke-linecap:butt;stroke-dasharray:none;stroke-opacity:1;paint-order:stroke fill markers"
       d="m 592.74875,527.8744 c -1.66018,-2.40592 -5.65782,-6.87269 -8.88363,-9.92615 -8.65016,-8.18798 -39.4728,-29.50724 -40.77617,-28.20387 -0.32392,0.32392 -0.58895,0.12766 -0.58895,-0.43613 0,-0.5638 -2.5875,-2.72074 -5.75,-4.7932 -3.1625,-2.07246 -7.237,-4.87776 -9.05445,-6.234 -3.16253,-2.35999 -3.23769,-2.56779 -1.75,-4.83829 2.14702,-3.27677 1.97907,-4.80694 -0.44555,-4.05939 -1.1,0.33915 -2.86178,0.88412 -3.91508,1.21105 -1.35609,0.42092 -2.41418,-0.1673 -3.625,-2.01524 -3.18087,-4.85463 -2.29166,-7.54486 4.53823,-13.72995 7.0758,-6.40778 12.7306,-8.66326 17.33298,-6.91344 3.63208,1.38092 6.66887,-0.16199 6.66887,-3.38827 0,-1.88722 0.88293,-2.71133 4.25,-3.96683 7.36136,-2.74489 8.94662,-2.54231 9.96553,1.27349 0.49261,1.8448 0.75813,4.75551 0.59006,6.46823 -0.26906,2.74178 -0.78376,3.2172 -4.30559,3.97696 -10.479,2.2606 -14.78995,3.96779 -18.51307,7.3314 -4.52009,4.08363 -5.78244,8.42877 -4.00946,13.80095 1.50904,4.57245 4.42456,6.56828 9.595,6.56828 4.08702,0 9.90129,-3.20585 13.29998,-7.33328 1.73584,-2.10804 4.12755,-2.16008 4.12755,-0.0898 0,2.78496 5.56271,7.42308 8.90284,7.42308 4.25498,0 11.09716,-2.91013 11.09716,-4.71987 0,-1.16427 -0.75778,-1.36055 -3.36462,-0.87151 -2.45865,0.46125 -3.91603,0.15464 -5.41246,-1.1387 -1.90501,-1.64647 -2.07138,-3.09259 -2.38538,-20.73338 L 570,433.57308 l 8.5,-3.1729 c 4.675,-1.74509 10.56823,-3.9098 13.09606,-4.81045 2.52784,-0.90066 6.69824,-3.6518 9.26756,-6.11365 2.56932,-2.46184 4.8886,-4.47608 5.15394,-4.47608 0.26534,0 0.48244,0.945 0.48244,2.1 0,1.155 1.58694,3.68694 3.52654,5.62654 3.04799,3.04799 3.99432,3.45062 6.9738,2.96712 C 625.6202,424.29485 629.48095,420 622.11852,420 c -3.47317,0 -4.79282,-0.45717 -5.58334,-1.93426 -0.56935,-1.06384 -1.062,-7.70134 -1.09479,-14.75 -0.10856,-23.33859 -1.50759,-26.43869 -12.23984,-27.12207 -10.889,-0.69336 -19.18333,4.19205 -21.36664,12.58508 L 581,391.98443 l -3.45913,-2.10469 -3.45913,-2.1047 2.58366,-1.35372 c 3.21737,-1.68575 4.22405,-5.178 2.32714,-8.07306 -2.35199,-3.58959 -5.06837,-3.79049 -11.13293,-0.82337 l -5.51651,2.69897 -2.92155,-2.79902 c -4.95443,-4.74664 -3.86101,-6.49344 7.57845,-12.10708 2.2,-1.07959 7.05196,-3.44934 10.78213,-5.26611 8.8673,-4.31878 9.74368,-5.96865 5.8092,-10.93634 l -3.01844,-3.81108 15.21356,-0.67852 C 604.1539,344.25252 620.9,343.51862 633,342.99482 c 23.26181,-1.00699 38.71538,-1.87722 44.5,-2.5059 1.925,-0.20921 6.875,-0.6526 11,-0.98531 4.125,-0.33271 9.975,-1.00552 13,-1.49515 3.025,-0.48962 7.75,-1.16305 10.5,-1.49651 8.69051,-1.05379 24.35712,-4.48656 29.84253,-6.53892 5.04298,-1.88682 9.65747,-5.15396 9.65747,-6.83767 0,-3.06561 -9.30549,-7.61793 -19.87088,-9.721 -0.75398,-0.15008 -3.45398,-0.74878 -6,-1.33044 -10.74876,-2.45565 -26.35358,-4.52478 -49.12912,-6.51432 -23.71582,-2.07168 -35.42637,-2.41232 -108.5,-3.15607 -45.30454,-0.46111 -63.20636,-0.96034 -63.73469,-1.77737 -0.40407,-0.62489 -0.74157,-2.11628 -0.75,-3.3142 -0.0133,-1.88826 0.6832,-2.25696 5.23469,-2.77113 9.65303,-1.09047 29.94119,-1.56503 67.76662,-1.58511 38.18172,-0.0203 61.57397,0.89655 90.81866,3.55946 8.98441,0.81809 16.71582,1.25226 17.18091,0.96482 0.46509,-0.28744 1.1382,-0.0492 1.49581,0.52941 0.3576,0.57862 2.3012,1.01985 4.3191,0.9805 2.01789,-0.0393 6.18465,0.38957 9.25946,0.95315 3.07481,0.56357 8.92481,1.45539 13,1.98181 6.2071,0.80182 18.43883,3.25287 28.79894,5.77086 3.95007,0.96005 17.54773,7.91391 19.13284,9.78455 0.81271,0.95911 2.40526,4.27866 3.53899,7.37678 1.78458,4.87667 2.38874,5.6056 4.5,5.4293 1.34127,-0.11201 10.60869,-0.51874 20.59428,-0.90386 l 18.1556,-0.70021 11.8444,4.63939 c 6.51441,2.55167 14.64253,6.47175 18.06247,8.7113 8.65738,5.66929 16.63875,14.8607 21.60597,24.88163 L 863,375.34922 v 14.57539 c 0,11.42041 -0.39432,15.76592 -1.8217,20.07539 -4.1374,12.4915 -15.24388,26.99238 -28.04745,36.6194 -4.74109,3.56484 -21.58206,13.0798 -24.63085,13.91617 -0.275,0.0754 -1.175,0.40024 -2,0.72178 -2.92652,1.14059 -17.55229,2.95817 -20.9471,2.60315 l -3.4471,-0.3605 5.80632,-2.39088 c 10.12721,-4.17009 23.85284,-12.11809 31.01473,-17.95946 9.47989,-7.73196 18.93766,-19.0852 23.37257,-28.05675 3.64872,-7.38114 3.70058,-7.655 3.70058,-19.53949 0,-11.82725 -0.0642,-12.17187 -3.42269,-18.36601 -6.26866,-11.56153 -20.70438,-21.74331 -35.07731,-24.74066 -5.66782,-1.18197 -26.91882,-2.23869 -32.5,-1.61608 l -6,0.66933 0.34175,18 c 0.51015,26.87006 -2.78977,43.45398 -12.52346,62.9373 -7.50931,15.03092 -15.7045,26.005 -30.2913,40.5627 -21.59669,21.5536 -36.14882,30.89738 -72.52699,46.56884 -2.2,0.94774 -4.75255,1.87431 -5.67234,2.05904 -0.91979,0.18473 -5.51523,1.44949 -10.21209,2.81059 -10.00374,2.89897 -26.4701,6.18357 -35.78251,7.13765 l -6.56579,0.67269 z"
       id="path59"
       transform="scale(0.26458333)" />
    <path
       style="opacity:1;fill:#ffb380;fill-opacity:1;fill-rule:nonzero;stroke:#d4eeff;stroke-width:0;stroke-linecap:butt;stroke-dasharray:none;stroke-opacity:1;paint-order:stroke fill markers"
       d="m 592.09764,527.13301 c -2.05596,-2.80077 -6.48639,-7.57938 -9.84541,-10.61911 -6.57901,-5.95367 -36.44303,-26.52113 -38.50223,-26.51663 -0.6875,0.001 -1.25,-0.38356 -1.25,-0.85569 0,-0.47213 -2.5875,-2.55407 -5.75,-4.62653 -3.1625,-2.07246 -7.22071,-4.86534 -9.01825,-6.20639 -3.2591,-2.43146 -3.26345,-2.44641 -1.55257,-5.34271 2.14183,-3.62582 1.27313,-4.60305 -2.64802,-2.97886 -3.55123,1.47097 -5.32298,0.48314 -6.81621,-3.80032 -1.34124,-3.84749 -0.12087,-6.23056 5.945,-11.60904 6.79137,-6.02176 8.87364,-6.88629 16.84005,-6.99171 6.29402,-0.0833 6.50988,-0.17162 6.81172,-2.78726 0.26186,-2.26922 1.20704,-3.03623 5.90968,-4.79571 3.07889,-1.15196 6.16961,-1.87511 6.86828,-1.60701 1.33515,0.51235 2.85258,8.06895 2.24934,11.20137 -0.26226,1.36177 -2.14851,2.25554 -7.34594,3.48077 -9.23775,2.17767 -12.45032,3.53133 -15.67042,6.60292 -8.2879,7.90566 -4.75406,20.3189 5.78445,20.3189 3.629,0 5.19347,-0.71547 9.83985,-4.5 5.89428,-4.80096 7.55304,-5.44291 7.55304,-2.92308 0,2.92068 5.56518,7.42321 9.17308,7.42153 3.81733,-0.002 9.99888,-2.83761 10.64583,-4.88384 0.34122,-1.07923 -0.33393,-1.24057 -3.05507,-0.73009 -2.59896,0.48757 -4.01464,0.20227 -5.53069,-1.1146 -1.86996,-1.62429 -2.08727,-3.31539 -2.64107,-20.55302 l -0.60345,-18.7831 4.41605,-1.89294 c 2.42883,-1.04112 8.12807,-3.14988 12.66498,-4.68614 6.33473,-2.14502 9.46279,-3.9026 13.47985,-7.57396 5.73074,-5.23758 6.45049,-5.58629 6.45049,-3.12515 0,2.80074 4.80168,8.14192 7.939,8.83099 3.41698,0.7505 12.60772,-2.79297 11.57562,-4.46294 C 625.66666,420.46065 623.62436,420 621.47617,420 c -2.7087,0 -4.18293,-0.53637 -4.80998,-1.75 -0.4973,-0.9625 -1.13981,-9.22679 -1.4278,-18.36509 -0.29762,-9.44387 -1.01437,-17.53207 -1.66065,-18.73965 -3.97698,-7.43105 -21.14411,-6.57178 -28.55944,1.42949 -1.36035,1.46785 -2.75856,4.18901 -3.10712,6.04703 -0.34857,1.85802 -0.92118,3.37598 -1.27247,3.37325 -0.35129,-0.003 -1.96774,-1.06835 -3.59211,-2.36805 -2.7992,-2.23971 -2.84629,-2.39709 -0.90176,-3.01426 2.8594,-0.90754 4.67299,-5.15033 3.29896,-7.71773 -2.05012,-3.83068 -5.70974,-4.2442 -11.68569,-1.32045 l -5.41501,2.64932 -2.92155,-2.79902 c -5.67362,-5.43567 -4.65018,-6.40617 18.35028,-17.40084 8.79805,-4.20564 9.53287,-5.61307 5.69595,-10.90978 L 580.48746,345 h 3.70988 c 7.54089,0 86.07959,-3.81877 92.80266,-4.51232 2.2,-0.22696 6.7,-0.66736 10,-0.97868 31.76792,-2.99697 55.95801,-8.26592 61.76327,-13.45292 2.79701,-2.49913 3.00444,-3.02859 1.76948,-4.51662 -3.9484,-4.75753 -23.19655,-10.16383 -46.03275,-12.9294 -18.0446,-2.18528 -23.26313,-2.67622 -43.5,-4.09227 -13.39646,-0.9374 -40.95174,-1.53982 -97,-2.12063 -42.55832,-0.44102 -59.20474,-0.92989 -59.73469,-1.75428 -0.40407,-0.62858 -0.74157,-2.11315 -0.75,-3.29904 -0.013,-1.82467 0.71497,-2.2482 4.73469,-2.75481 9.31034,-1.17339 28.30556,-1.63629 67.36347,-1.64161 39.63273,-0.005 62.47655,0.88011 92.26348,3.57648 8.73232,0.79047 16.23873,1.21362 16.6809,0.94035 0.44218,-0.27328 1.09654,-0.0235 1.45415,0.55516 0.3576,0.57862 2.3012,1.01985 4.3191,0.9805 2.01789,-0.0393 6.18465,0.38957 9.25946,0.95315 3.07481,0.56357 8.92481,1.44095 13,1.94971 4.07519,0.50877 9.20944,1.37932 11.40944,1.93455 2.2,0.55524 5.8,1.28257 8,1.61629 5.76862,0.87506 9.98534,2.30654 18.77544,6.37384 8.82202,4.08207 10.70465,5.82323 13.16153,12.17255 0.9577,2.475 2.12062,4.9593 2.58426,5.52066 0.53609,0.64908 3.87114,0.76904 9.16088,0.32951 4.57484,-0.38012 13.66345,-0.72692 20.1969,-0.77065 13.28225,-0.0889 18.18243,1.1999 34.54384,9.08547 11.85752,5.71488 22.06388,15.96645 28.1716,28.29639 l 4.40555,8.89367 -0.0255,15.07248 c -0.0283,16.70232 -1.15475,21.43201 -7.71283,32.38352 -4.37312,7.30279 -15.66963,19.31445 -23.16633,24.63291 -4.78382,3.39383 -20.97017,12.37505 -23.59533,13.09218 -0.275,0.0751 -1.175,0.38577 -2,0.69032 -2.97843,1.0995 -14.83706,2.77344 -19.6153,2.76886 l -4.8847,-0.005 12.23347,-5.9359 c 6.72841,-3.26475 14.37841,-7.3906 17,-9.16856 C 824.40516,439.95315 837.36358,425.68291 842.91266,414 845.82982,407.8583 846,406.83852 846,395.5 c 0,-11.76643 -0.0666,-12.12287 -3.42269,-18.31259 -3.77887,-6.96952 -10.47998,-13.55556 -18.40025,-18.08428 -10.99243,-6.28534 -21.52662,-8.31142 -41.06093,-7.89739 l -13.88387,0.29426 -0.18419,23 c -0.17027,21.26114 -0.37944,23.72466 -2.7667,32.58509 -7.09043,26.31648 -18.10878,44.54405 -40.1655,66.44547 -13.34596,13.25199 -22.308,20.31065 -36.53813,28.77805 -8.13288,4.83933 -14.59046,7.96145 -36.57774,17.6846 -8.33797,3.68719 -36.73916,10.21949 -50.19882,11.54577 l -6.96543,0.68636 z"
       id="path60"
       transform="scale(0.26458333)" />
    <path
       style="opacity:1;fill:#ffb380;fill-opacity:1;fill-rule:nonzero;stroke:#d4eeff;stroke-width:0;stroke-linecap:butt;stroke-dasharray:none;stroke-opacity:1;paint-order:stroke fill markers"
       d="m 592.5,527.95778 c -1.375,-2.29191 -5.21763,-6.70752 -8.53918,-9.81245 -5.71557,-5.34281 -35.32059,-26.39696 -39.16589,-27.85352 -0.98721,-0.37395 -2.40534,-1.28335 -3.1514,-2.0209 -0.74606,-0.73754 -4.12106,-3.19117 -7.5,-5.4525 -9.94626,-6.65647 -9.89223,-6.5888 -7.92328,-9.92198 2.10261,-3.55944 1.21051,-4.52461 -2.68909,-2.90934 -3.55123,1.47097 -5.32298,0.48314 -6.81621,-3.80032 -1.34124,-3.84749 -0.12087,-6.23056 5.945,-11.60904 6.79137,-6.02176 8.87364,-6.88629 16.84005,-6.99171 6.29402,-0.0833 6.50988,-0.17162 6.81172,-2.78726 0.26186,-2.26922 1.20704,-3.03623 5.90968,-4.79571 3.07889,-1.15196 6.16961,-1.87511 6.86828,-1.60701 1.335,0.51229 2.85261,8.06881 2.24948,11.20063 -0.23387,1.21439 -1.69821,2.12396 -4.34594,2.69947 -10.11838,2.19931 -16.45156,4.89239 -19.39868,8.24896 -7.23682,8.24229 -3.34266,19.4549 6.75673,19.4549 2.83516,0 10.583,-4.36101 13.02118,-7.32921 1.97586,-2.40539 3.81364,-2.05763 4.54598,0.86023 0.97088,3.86829 6.2152,6.69115 11.08157,5.96487 4.35922,-0.65059 8.5,-2.90621 8.5,-4.63023 0,-0.69376 -1.21965,-0.85943 -3.36462,-0.45704 -2.45637,0.46082 -3.92205,0.15344 -5.42961,-1.1387 -1.89862,-1.62732 -2.12074,-3.28018 -2.75691,-20.5144 l -0.69191,-18.74448 4.22273,-1.89058 c 2.3225,-1.03981 8.07622,-3.1798 12.78604,-4.75552 6.73318,-2.25266 9.71099,-3.90831 13.93344,-7.74695 2.95358,-2.68511 5.4804,-4.71011 5.61515,-4.5 0.13475,0.2101 1.00218,2.04917 1.92762,4.08682 2.94457,6.48341 8.506,7.90916 16.04077,4.11226 3.63147,-1.82996 2.59741,-3.31707 -2.30653,-3.31707 -2.70908,0 -4.18253,-0.53619 -4.80897,-1.75 -0.49673,-0.9625 -1.14813,-8.95 -1.44755,-17.75 -0.29942,-8.8 -1.01449,-17.21595 -1.58906,-18.7021 -3.13542,-8.10999 -20.66871,-7.601 -28.48347,0.82686 -1.45546,1.56965 -2.92156,4.32121 -3.258,6.11458 -0.33643,1.79336 -0.89912,3.25842 -1.25041,3.25569 -1.22101,-0.009 -6.63134,-4.92333 -5.46014,-4.95907 2.11635,-0.0646 4.32143,-3.1185 4.32143,-5.98494 0,-5.61693 -5.86566,-6.94059 -12.99651,-2.93283 l -4.00737,2.25227 -2.99806,-2.87232 c -1.64893,-1.57978 -2.99806,-3.66657 -2.99806,-4.63733 0,-1.96043 9.27223,-7.81801 17.48964,-11.0488 11.82438,-4.64891 13.62331,-7.35301 8.95947,-13.46762 L 580.39822,345 l 3.30089,-0.005 c 7.13253,-0.0118 70.14882,-3.02452 84.30089,-4.03033 43.78982,-3.11221 75.54217,-9.1224 81.45702,-15.41847 1.98964,-2.11787 2.13909,-2.72502 1.00665,-4.08952 C 743.39049,312.93356 697.37602,305.66978 637,303.545 c -8.25,-0.29034 -41.325,-0.803 -73.5,-1.13924 -42.31655,-0.44223 -58.70324,-0.92872 -59.23469,-1.75856 -0.40407,-0.63096 -0.74157,-2.13213 -0.75,-3.33593 -0.0127,-1.82264 0.69554,-2.28372 4.23469,-2.75668 9.03426,-1.2073 24.80074,-1.58619 66.25,-1.59208 46.89193,-0.007 61.14317,0.60326 107,4.57935 12.19259,1.05718 33.22002,4.08345 41.5,5.97269 3.575,0.8157 8.075,1.72987 10,2.03148 6.1085,0.9571 12.38956,3.12141 19.60754,6.75633 8.078,4.06802 9.14597,5.14766 11.96236,12.0931 l 2.0699,5.10454 20.50448,-0.38007 20.50449,-0.38006 8.92561,3.24957 c 14.885,5.41921 22.18882,9.73376 30.45436,17.99015 5.44809,5.44206 8.75577,9.86948 11.96865,16.02041 l 4.43991,8.5 0.53135,14.25173 c 0.29224,7.83844 0.24393,14.25094 -0.10736,14.24999 -0.35129,-9.4e-4 -0.94469,1.68578 -1.31866,3.74828 -2.24986,12.40815 -15.59056,30.49336 -30.04263,40.72704 -15.2739,10.81562 -30.45085,16.41548 -44.5,16.41921 l -5.5,0.001 11.34413,-5.43464 c 6.23928,-2.98905 14.44115,-7.49353 18.22639,-10.00995 12.92197,-8.59051 26.66414,-24.06548 32.14317,-36.19624 1.79699,-3.97859 2.15979,-6.72025 2.21741,-16.75688 0.0618,-10.7695 -0.17418,-12.46144 -2.30168,-16.5 C 837.73398,367.80887 826.84233,359.05478 813,354.38181 c -7.17923,-2.4236 -9.82107,-2.74835 -25.75,-3.16529 -11.56877,-0.30282 -17.75,-0.11357 -17.75,0.54346 0,0.55445 -0.15481,11.07277 -0.34401,23.37405 -0.31035,20.17696 -0.59423,23.30409 -2.90057,31.95106 -7.12499,26.71317 -19.69808,47.14793 -42.40981,68.92772 -5.44124,5.21795 -13.48246,12.16438 -17.86938,15.4365 -4.38693,3.27212 -8.20157,6.19712 -8.47699,6.5 -1.37692,1.51423 -23.71522,13.0772 -33.17795,17.17391 -5.12671,2.2195 -10.67129,4.62565 -12.32129,5.34698 -8.12223,3.55082 -37.22581,10.04403 -49.5,11.04381 l -7.5,0.6109 z"
       id="path61"
       transform="scale(0.26458333)" />
    <path
       style="opacity:1;fill:#ffb380;fill-opacity:1;fill-rule:nonzero;stroke:#d4eeff;stroke-width:0;stroke-linecap:butt;stroke-dasharray:none;stroke-opacity:1;paint-order:stroke fill markers"
       d=""
       id="path62"
       transform="scale(0.26458333)" />
    <path
       style="opacity:1;fill:#ffb380;fill-opacity:1;fill-rule:nonzero;stroke:#d4eeff;stroke-width:0;stroke-linecap:butt;stroke-dasharray:none;stroke-opacity:1;paint-order:stroke fill markers"
       d="m 552.94447,578.08985 c 0.27055,-0.43776 4.04433,-3.12816 8.38618,-5.97867 l 7.89427,-5.18273 28.38754,-0.95474 c 81.24734,-2.73252 134.11245,-8.73919 164.07525,-18.64266 21.77537,-7.19731 25.00931,-16.31553 8.47182,-23.88665 -11.03738,-5.05307 -37.90357,-10.85469 -66.84953,-14.4358 -8.24403,-1.01993 -15.18725,-2.05251 -15.42937,-2.29464 -0.24212,-0.24212 2.51683,-2.36681 6.13101,-4.72154 l 6.57122,-4.28132 9.20857,0.58204 c 12.06785,0.76276 41.95152,5.87943 59.3647,10.16438 32.4111,7.97558 49.34387,16.75264 49.34387,25.57728 0,6.50838 -12.36796,14.46881 -32.5,20.91807 -27.52348,8.8171 -68.80017,15.46249 -121,19.48054 -32.11026,2.47166 -112.95365,5.10964 -112.05553,3.65644 z"
       id="path63"
       transform="scale(0.26458333)" />
    <path
       style="opacity:1;fill:#ffb380;fill-opacity:1;fill-rule:nonzero;stroke:#d4eeff;stroke-width:0;stroke-linecap:butt;stroke-dasharray:none;stroke-opacity:1;paint-order:stroke fill markers"
       d="m 552.95403,578.07438 c 0.2653,-0.42925 4.03008,-3.10961 8.36619,-5.95635 l 7.88384,-5.17589 27.39797,-0.93515 C 677.50436,563.24561 728.79496,557.57327 760,547.93643 c 23.1804,-7.15864 27.08426,-16.74363 10.00427,-24.56311 -10.70883,-4.90266 -36.9862,-10.5676 -66.36555,-14.30724 -8.4487,-1.07542 -15.56025,-2.15428 -15.80345,-2.39747 -0.24319,-0.24319 2.39439,-2.32891 5.86128,-4.63494 L 700,497.8409 l 9.5,0.5105 c 11.98178,0.64386 41.57945,5.65789 59.65613,10.10612 32.4111,7.97558 49.34387,16.75264 49.34387,25.57728 0,8.61612 -20.46991,18.91223 -52.79772,26.5566 -24.18027,5.71777 -62.41347,10.97491 -100.70228,13.84676 -34.63429,2.59775 -112.97545,5.14015 -112.04597,3.63622 z"
       id="path64"
       transform="scale(0.26458333)" />
    <path
       style="opacity:1;fill:#ffb380;fill-opacity:1;fill-rule:nonzero;stroke:#d4eeff;stroke-width:0;stroke-linecap:butt;stroke-dasharray:none;stroke-opacity:1;paint-order:stroke fill markers"
       d="m 552.86946,578.21122 c 0.31181,-0.50452 4.12942,-3.25615 8.48359,-6.11474 l 7.91666,-5.19744 26.86515,-0.91298 c 75.1392,-2.5535 123.98885,-7.55323 156.36514,-16.00389 36.26051,-9.46448 37.41141,-22.08942 2.86017,-31.37505 -12.90066,-3.46704 -33.43718,-7.25 -51.68757,-9.52117 -8.43007,-1.04908 -15.56909,-2.14911 -15.86448,-2.4445 -0.2954,-0.29539 2.2842,-2.36056 5.73243,-4.58926 C 699.1016,498.45791 700.49099,498 705.83576,498 c 3.31413,0 13.48186,1.15613 22.59496,2.56917 56.79373,8.80621 90.06928,21.16989 90.06928,33.46563 0,6.64936 -12.36003,14.49402 -33.5,21.26178 -37.32009,11.94766 -102.96548,20.05966 -179.5,22.18136 -10.725,0.29732 -27.08193,0.79033 -36.34873,1.09558 -10.11719,0.33326 -16.62223,0.18851 -16.28181,-0.3623 z"
       id="path65"
       transform="scale(0.26458333)" />
    <path
       style="opacity:1;fill:#ffb380;fill-opacity:1;fill-rule:nonzero;stroke:#d4eeff;stroke-width:0;stroke-linecap:butt;stroke-dasharray:none;stroke-opacity:1;paint-order:stroke fill markers"
       d="m 592.18281,527.62662 c -1.54946,-2.50182 -5.31273,-6.82954 -8.36283,-9.61716 -5.37938,-4.91645 -30.31144,-22.71579 -37.24952,-26.59295 -1.88625,-1.05408 -6.60905,-4.27901 -10.49512,-7.16651 -3.88606,-2.8875 -7.52202,-5.25 -8.07991,-5.25 -0.55788,0 -1.60332,-0.94311 -2.32318,-2.09579 -1.10296,-1.76612 -1.06215,-2.36839 0.25945,-3.82874 2.24272,-2.47817 2.01266,-4.44573 -0.4317,-3.6921 -1.1,0.33915 -2.86178,0.88412 -3.91508,1.21105 -1.35609,0.42092 -2.41418,-0.1673 -3.625,-2.01524 -3.15076,-4.80867 -2.27806,-7.53861 4.36234,-13.64608 6.83023,-6.28206 11.39054,-8.07318 18.42675,-7.23735 4.6723,0.55502 4.75904,0.51401 5.36958,-2.5387 0.53252,-2.66262 1.40656,-3.39691 6.16068,-5.17565 3.04706,-1.14005 6.11842,-1.8509 6.82524,-1.57967 1.49865,0.57509 2.70455,6.04408 2.22715,10.10055 -0.30811,2.61802 -0.9018,2.96858 -8.36024,4.93657 C 539.20694,457.07074 534,461.52157 534,469.65536 c 0,3.82887 0.49242,4.94867 3.26578,7.42667 5.21354,4.6583 9.60091,3.99313 17.90252,-2.71422 4.99389,-4.03486 5.91869,-4.1495 6.75013,-0.83679 0.97088,3.86829 6.2152,6.69115 11.08157,5.96487 4.29275,-0.64067 8.5,-2.89984 8.5,-4.56426 0,-0.6148 -1.31472,-0.77561 -3.29847,-0.40346 -2.3988,0.45002 -3.90017,0.12143 -5.5045,-1.20469 -2.11583,-1.74891 -2.21608,-2.60011 -2.45154,-20.814 L 570,433.51895 l 8,-3.09259 c 4.4,-1.70093 10.23733,-3.91803 12.97183,-4.9269 2.73451,-1.00887 7.12895,-3.85204 9.76541,-6.31814 2.63647,-2.46611 4.91249,-4.30327 5.05783,-4.08258 0.14533,0.22069 1.02142,2.06842 1.94686,4.10607 2.94457,6.48341 8.506,7.90916 16.04077,4.11226 3.63147,-1.82996 2.59741,-3.31707 -2.30653,-3.31707 -2.71093,0 -4.18062,-0.53536 -4.80411,-1.75 -0.49408,-0.9625 -1.18519,-9.03394 -1.53581,-17.93653 -0.35062,-8.90259 -1.08435,-17.36186 -1.63051,-18.79837 -1.82916,-4.81106 -10.74735,-6.82498 -19.48319,-4.39972 -4.90192,1.36088 -11.3091,7.56736 -12.14939,11.76881 -0.73902,3.69509 -0.74801,3.69715 -4.49414,1.02967 l -2.92971,-2.08614 2.52534,-1.98644 c 2.72881,-2.14648 3.40585,-6.56078 1.32535,-8.64128 -1.84523,-1.84523 -7.95944,-1.41237 -11.3,0.8 -1.65,1.09275 -3.50114,1.98979 -4.11364,1.99341 -1.77189,0.0105 -6.38636,-5.08882 -6.38636,-7.05737 0,-2.024 8.32507,-7.40559 17,-10.98934 6.74496,-2.78645 12,-6.53693 12,-8.56431 0,-0.83371 -1.17841,-3.06081 -2.61869,-4.94911 L 580.26262,345 l 2.36869,-0.001 c 3.94777,-0.002 67.69478,-2.87675 77.86869,-3.51132 50.05208,-3.12187 86.04139,-10.09062 89.96399,-17.42006 3.83635,-7.16828 -27.56634,-14.51198 -78.96399,-18.46617 -25.77008,-1.98258 -42.64982,-2.47145 -109.99778,-3.18573 -41.14037,-0.43633 -56.6981,-0.914 -57.23469,-1.7573 -0.4053,-0.63695 -0.74379,-2.14302 -0.75222,-3.34682 -0.0127,-1.8227 0.69542,-2.28363 4.23469,-2.75625 9.46945,-1.26452 21.25622,-1.55389 64.25,-1.57734 42.49918,-0.0232 62.40351,0.62737 91.5,2.99061 21.88003,1.77712 26.96295,2.3216 36.5,3.90985 3.85,0.64116 10.15,1.57952 14,2.08523 3.85,0.50572 8.125,1.18526 9.5,1.51009 1.375,0.32484 4.6914,1.02477 7.36979,1.55541 8.17725,1.62007 13.91075,3.58367 21.23775,7.27349 8.07907,4.06855 9.14745,5.14887 11.9596,12.0931 l 2.06714,5.10454 7.43286,-0.10173 c 4.08807,-0.056 13.50786,-0.19963 20.93286,-0.31928 13.32806,-0.21478 13.61999,-0.17168 22.92113,3.3843 14.76138,5.64351 20.90043,9.34006 29.10761,17.52676 5.41612,5.4026 8.78342,9.89512 12,16.00995 l 4.47126,8.5 0.5,14.25202 c 0.275,7.83862 0.1625,14.25112 -0.25,14.25 -0.4125,-0.001 -0.75,0.8811 -0.75,1.96047 0,3.39804 -3.90847,12.58582 -8.13728,19.12862 C 839.6404,446.86939 811.3342,463.73988 787.5,463.94126 l -5.5,0.0465 13.67935,-6.82038 c 7.52365,-3.75121 16.07365,-8.62853 19,-10.83848 7.31429,-5.52367 18.1488,-16.78646 23.382,-24.30625 6.30882,-9.06541 7.83291,-14.40609 7.8542,-27.52262 0.0168,-10.31883 -0.16585,-11.33792 -2.94884,-16.45705 C 837.01012,367.08622 824.39697,357.66031 810,353.40666 c -4.65848,-1.37638 -9.80097,-1.78771 -23,-1.8397 L 770,351.5 769.39296,374 c -0.64721,23.98925 -1.24377,28.12663 -6.20006,43 -1.74114,5.225 -3.17183,9.95 -3.1793,10.5 -0.007,0.55 -0.2709,1.225 -0.58538,1.5 -0.31448,0.275 -2.49116,4.00137 -4.83707,8.28083 -6.29594,11.48521 -14.91823,22.60358 -27.97229,36.07003 -6.39037,6.59225 -11.84386,11.96866 -12.11886,11.94758 -1.05945,-0.0812 -12,9.05028 -12,10.01574 0,0.56054 -0.28224,0.73692 -0.62719,0.39196 -0.34496,-0.34496 -2.49283,0.65639 -4.77304,2.22522 -8.3501,5.74502 -21.94612,12.5306 -46.09977,23.00773 -7.3424,3.18492 -36.68498,9.59803 -48.5,10.60015 l -7.5,0.63614 z"
       id="path66"
       transform="scale(0.26458333)" />
    <path
       style="opacity:1;fill:#ffb380;fill-opacity:1;fill-rule:nonzero;stroke:#d4eeff;stroke-width:0;stroke-linecap:butt;stroke-dasharray:none;stroke-opacity:1;paint-order:stroke fill markers"
       d="M 590.77767,525.97045 C 588.4479,522.70302 582.88075,517.1431 578.35731,513.56624 570.69127,507.50442 545.25255,490 544.10909,490 c -0.28415,0 -3.79994,-2.46632 -7.81286,-5.48071 -4.01293,-3.01439 -7.75048,-5.48939 -8.30568,-5.5 -0.5552,-0.0106 -1.57472,-0.92442 -2.26559,-2.03068 -1.03884,-1.66344 -0.97052,-2.4473 0.39491,-4.53121 2.11245,-3.224 1.24024,-4.05631 -2.58871,-2.47031 -3.55123,1.47097 -5.32298,0.48314 -6.81621,-3.80032 -1.35151,-3.87694 -0.12584,-6.21494 6.22601,-11.87624 6.25728,-5.57703 11.26455,-7.55713 16.82755,-6.65438 4.11561,0.66787 6.73149,-0.77259 6.73149,-3.70675 0,-1.27881 1.65146,-2.42359 5.65969,-3.92326 3.11283,-1.16466 6.238,-1.89564 6.94482,-1.62441 1.49865,0.57509 2.70455,6.04408 2.22715,10.10055 -0.30811,2.61802 -0.9018,2.96858 -8.36024,4.93657 -13.74167,3.62588 -18.7016,7.85303 -18.87418,16.08574 -0.0846,4.03534 0.32736,5.01786 3.16854,7.55691 5.21332,4.65895 9.60059,3.99392 17.90252,-2.71369 2.29256,-1.8523 4.57172,-3.36781 5.06479,-3.36781 0.49307,0 1.61332,1.50321 2.48944,3.34047 2.22185,4.65927 6.54584,6.34137 12.07926,4.69903 6.90351,-2.04899 9.64158,-5.68231 3.39974,-4.51133 -2.39658,0.4496 -3.90632,0.12021 -5.52155,-1.20469 -2.13931,-1.75476 -2.2317,-2.53949 -2.45154,-20.82231 L 570,433.50234 l 7.59053,-3.00117 c 4.17479,-1.65064 9.86587,-3.79069 12.64683,-4.75565 2.84919,-0.98864 7.30088,-3.77255 10.19844,-6.3777 2.82817,-2.54277 5.27193,-4.45326 5.43058,-4.24552 0.15864,0.20773 0.88514,1.87506 1.61444,3.70516 2.46504,6.18579 9.26974,8.16281 16.04193,4.66078 3.85973,-1.99595 2.98419,-3.48824 -2.04658,-3.48824 -2.70921,0 -4.1824,-0.53614 -4.80864,-1.75 -0.49656,-0.9625 -1.21577,-9.13972 -1.59824,-18.1716 -0.77269,-18.24668 -1.63507,-21.20848 -6.68813,-22.96998 -10.50515,-3.66212 -24.70094,2.74049 -26.54755,11.97351 -0.69601,3.48005 -0.7274,3.48591 -4.45459,0.83193 l -2.92971,-2.08614 2.52534,-1.98644 c 1.66049,-1.30614 2.52535,-2.97695 2.52535,-4.87868 0,-5.08495 -5.72183,-6.46748 -12.26118,-2.9626 -4.74126,2.54116 -4.94058,2.52551 -8.10246,-0.63636 -5.11877,-5.11878 -3.6106,-6.68211 15.78632,-16.36364 4.95865,-2.475 9.45269,-5.24851 9.98676,-6.16335 0.7212,-1.23541 0.2922,-2.68911 -1.66744,-5.65033 l -2.63846,-3.98698 13.19823,-0.62943 c 7.25903,-0.34618 27.29861,-1.30159 44.53241,-2.12312 37.48641,-1.78697 57.42564,-3.5788 78.00589,-7.00997 42.71403,-7.12136 45.69371,-15.84245 7.97246,-23.33423 -32.6215,-6.47893 -69.21636,-8.66599 -160.78723,-9.60933 -43.70552,-0.45024 -58.66666,-0.90432 -59.23469,-1.79782 -0.41799,-0.65749 -0.76687,-2.18037 -0.7753,-3.38417 -0.0162,-2.31833 1.20506,-2.66177 13.48469,-3.79215 9.80559,-0.90264 101.30398,-0.54965 118,0.45522 25.22192,1.51802 44.53373,3.07934 56,4.52748 32.03087,4.04538 49.33983,7.88559 60.21895,13.36031 9.0529,4.55572 10.43922,5.89367 13.09478,12.63787 l 1.96877,5 6.35875,-0.12069 c 3.49731,-0.0664 12.94517,-0.21212 20.99523,-0.32385 l 14.63649,-0.20316 10.36351,4.05583 c 5.69994,2.23071 13.23423,5.75144 16.74288,7.82385 8.46489,4.99986 17.86354,15.3118 23.26084,25.52116 L 863,374.5 l 0.5,14.25202 c 0.275,7.83862 0.1625,14.25112 -0.25,14.25 -0.4125,-0.001 -0.75,0.8811 -0.75,1.96047 0,7.29066 -10.23808,24.23342 -20.60507,34.09886 C 825.1792,454.96836 805.11471,464.07218 787,463.96871 l -5,-0.0286 12.5,-6.23619 c 6.875,-3.4299 15.2,-8.09269 18.5,-10.36175 7.62469,-5.24267 21.11852,-19.1095 25.92315,-26.63971 5.64922,-8.85391 6.57685,-12.46915 6.57685,-25.63187 0,-10.47675 -0.25921,-12.1981 -2.52006,-16.73503 -3.30348,-6.62922 -13.46604,-16.29019 -21.29117,-20.2403 C 811.29309,352.84757 804.9408,351.67161 786.5,351.58104 L 770,351.5 l -0.65891,23 c -0.70265,24.5271 -1.53438,30.10591 -6.69409,44.90079 -1.64944,4.72957 -2.69479,8.6061 -2.32299,8.61452 0.37179,0.008 0.18848,0.34592 -0.40737,0.75 -0.59585,0.40408 -2.62085,3.64824 -4.5,7.20924 -5.63689,10.68194 -14.06648,21.78418 -27.08896,35.67766 -6.78022,7.23371 -12.66458,13.19621 -13.07634,13.25 -1.44755,0.18908 -12.75134,9.43055 -12.75134,10.42492 0,0.55341 -0.26503,0.74117 -0.58895,0.41725 -0.32393,-0.32392 -3.58643,1.34521 -7.25,3.70919 -7.49574,4.83674 -25.11627,13.76181 -35.66105,18.06286 -3.85,1.57036 -7.45633,3.18857 -8.01406,3.59601 -1.60001,1.16888 -29.0015,7.65509 -39.48594,9.34672 -15.42956,2.48951 -15.80462,2.40827 -20.72233,-4.48871 z"
       id="path67"
       transform="scale(0.26458333)" />
    <path
       style="opacity:1;fill:#ffb380;fill-opacity:1;fill-rule:nonzero;stroke:#d4eeff;stroke-width:0;stroke-linecap:butt;stroke-dasharray:none;stroke-opacity:1;paint-order:stroke fill markers"
       d="m 590.76915,526.07251 c -5.84654,-8.03463 -20.85523,-19.84393 -42.91486,-33.76675 -8.87472,-5.60123 -20.64781,-13.60972 -22.26636,-15.1464 -1.21356,-1.15218 -1.16472,-1.75934 0.34744,-4.31923 2.18019,-3.69078 1.51733,-4.47739 -2.40421,-2.85304 -3.55123,1.47097 -5.32298,0.48314 -6.81621,-3.80032 -1.35151,-3.87694 -0.12584,-6.21494 6.22601,-11.87624 6.25728,-5.57703 11.26455,-7.55713 16.82755,-6.65438 4.11561,0.66787 6.73149,-0.77259 6.73149,-3.70675 0,-1.27881 1.65146,-2.42359 5.65969,-3.92326 3.11283,-1.16466 6.238,-1.89564 6.94482,-1.62441 1.50174,0.57627 2.70315,6.04209 2.22715,10.13238 -0.30442,2.61589 -0.88459,2.98905 -7.06368,4.54317 -14.35746,3.6111 -20.10131,8.33759 -20.10131,16.54092 0,4.01389 0.46155,5.10717 3.18244,7.53829 5.12382,4.57813 9.5608,3.88375 17.81919,-2.78868 2.29256,-1.8523 4.60047,-3.36781 5.12868,-3.36781 0.52821,0 1.5425,1.40535 2.25397,3.12301 1.53877,3.71492 6.65495,6.22516 10.70747,5.25359 7.07049,-1.69511 11.54883,-6.08767 4.94311,-4.84843 -2.39377,0.44907 -3.91416,0.11865 -5.54322,-1.20469 -2.16906,-1.76199 -2.25174,-2.46422 -2.45154,-20.82305 L 570,433.50087 l 7.59053,-3.00044 c 4.17479,-1.65023 9.86587,-3.78995 12.64683,-4.75491 2.80376,-0.97287 7.28381,-3.7572 10.0564,-6.25 2.75005,-2.47254 5.2227,-4.49552 5.49476,-4.49552 0.27207,0 0.75933,1.05452 1.08281,2.34338 1.04602,4.16764 5.47432,7.65662 9.71798,7.65662 4.54438,0 8.91069,-1.79368 8.91069,-3.66052 0,-0.89408 -1.31837,-1.33948 -3.96482,-1.33948 -2.76144,0 -4.242,-0.53115 -4.87807,-1.75 -0.50228,-0.9625 -1.21955,-8.725 -1.59391,-17.25 -0.81639,-18.59069 -1.5044,-21.26968 -6.0117,-23.40853 -9.47062,-4.49411 -23.8994,1.16228 -26.68545,10.46127 -0.65044,2.17099 -1.46127,3.94726 -1.80183,3.94726 -0.50245,0 -4.2212,-2.27754 -5.96688,-3.6544 -0.22147,-0.17468 0.79103,-1.25655 2.25,-2.40418 2.99609,-2.35672 3.46495,-5.98627 1.08123,-8.36999 -2.12413,-2.12414 -5.71403,-1.97661 -10.42857,0.42857 -4.98315,2.54222 -5.20168,2.52559 -8.36364,-0.63636 -5.11395,-5.11396 -3.69862,-6.58209 15.77506,-16.36364 11.13397,-5.59255 11.87687,-6.6413 8.27835,-11.68655 l -2.71996,-3.81345 10.2651,-0.71556 c 5.6458,-0.39356 25.56509,-1.41886 44.26509,-2.27846 48.83323,-2.24474 74.8501,-4.96402 96.5,-10.08616 15.29897,-3.61959 21.48453,-7.72121 17.99147,-11.9301 -2.76435,-3.33083 -19.52061,-7.90092 -39.99147,-10.90724 -30.23951,-4.44092 -67.95266,-6.23231 -148.96286,-7.07579 -41.88885,-0.43615 -55.65176,-0.87475 -56.23469,-1.79209 -0.99339,-1.56327 -1.03119,-5.70462 -0.0525,-5.74732 0.4125,-0.018 3.9,-0.45993 7.75,-0.98208 9.43715,-1.27989 102.85644,-1.30108 123.5,-0.028 27.91303,1.72138 50.33167,3.54046 56.5,4.58451 1.1,0.18619 8.525,1.27662 16.5,2.42317 20.29459,2.91774 33.61423,6.31547 42.71895,10.89726 9.05283,4.55569 10.43914,5.89361 13.09493,12.63787 1.95561,4.96617 1.99842,4.99929 6.32753,4.89531 2.39722,-0.0576 11.84979,-0.20144 21.00569,-0.31969 l 16.64711,-0.21501 10.35289,4.05168 c 5.6941,2.22842 13.22361,5.74728 16.73226,7.81969 8.46489,4.99986 17.86354,15.3118 23.26084,25.52116 L 863,374.5 l 0.5,14.25189 c 0.275,7.83854 0.1625,14.25104 -0.25,14.25 -0.4125,-0.001 -0.75,0.88123 -0.75,1.9606 0,7.27729 -10.20732,24.18316 -20.6237,34.15801 -16.41334,15.7176 -36.5903,24.93931 -54.3763,24.85223 l -5.5,-0.0269 12.7313,-6.41199 c 15.48764,-7.8002 20.25627,-10.98753 29.13312,-19.47246 8.22942,-7.86609 14.34318,-15.60798 18.21153,-23.06135 2.61419,-5.0369 2.88704,-6.57632 3.24056,-18.28287 0.36772,-12.17666 0.26114,-13.03813 -2.24742,-18.16545 -5.08819,-10.39988 -19.87856,-21.56928 -33.15054,-25.03465 -6.35898,-1.66036 -33.44686,-3.22871 -37.63026,-2.17874 l -2.53606,0.63651 -0.50479,23.2626 c -0.45516,20.9754 -0.75911,24.19665 -3.09135,32.7626 -1.42261,5.225 -3.50037,11.8625 -4.61725,14.75 -1.11688,2.8875 -1.69502,5.25689 -1.28476,5.26531 0.41025,0.008 0.25841,0.34592 -0.33744,0.75 -0.59585,0.40408 -2.62085,3.64824 -4.5,7.20924 -5.63689,10.68194 -14.06648,21.78418 -27.08896,35.67766 -6.78022,7.23371 -12.69553,13.19621 -13.14513,13.25 -1.11072,0.13288 -12.0986,9.09496 -12.51588,10.20837 -0.18334,0.48918 -0.80971,0.88942 -1.39194,0.88942 -0.58223,0 -3.82663,1.74817 -7.20978,3.88482 -15.33225,9.68319 -41.13409,21.11127 -56.67807,25.10369 -13.52788,3.47459 -33.37493,7.03802 -38.73625,6.95488 -3.27266,-0.0508 -4.08868,-0.65861 -7.88148,-5.87088 z"
       id="path68"
       transform="scale(0.26458333)" />
    <path
       style="opacity:1;fill:#ffb380;fill-opacity:1;fill-rule:nonzero;stroke:#d4eeff;stroke-width:0;stroke-linecap:butt;stroke-dasharray:none;stroke-opacity:1;paint-order:stroke fill markers"
       d=""
       id="path69"
       transform="scale(0.26458333)" />
    <path
       style="opacity:1;fill:#ffb380;fill-opacity:1;fill-rule:nonzero;stroke:#d4eeff;stroke-width:0;stroke-linecap:butt;stroke-dasharray:none;stroke-opacity:1;paint-order:stroke fill markers"
       d="m 591,526.41305 c -4.91653,-6.76366 -16.03147,-15.9376 -32.5,-26.82452 -13.62489,-9.00707 -13.36379,-8.83278 -24.10094,-16.08853 -10.64997,-7.19684 -10.56934,-7.09529 -8.46369,-10.65987 2.17089,-3.67504 1.76837,-4.15572 -2.2941,-2.73953 -3.71476,1.29497 -5.4529,0.3128 -6.92632,-3.91383 -1.33613,-3.83284 -0.15223,-6.1564 5.9354,-11.64899 6.86089,-6.19026 10.89893,-7.90744 16.58842,-7.05425 4.79087,0.71844 7.26123,-0.48391 7.26123,-3.53413 0,-1.27411 1.63021,-2.41564 5.53751,-3.87755 3.04564,-1.13952 5.98177,-2.07185 6.52475,-2.07185 2.58087,0 4.17514,12.6926 1.68774,13.4367 -17.73366,5.30499 -18.89934,5.77931 -22.12122,9.00119 -5.32095,5.32094 -5.26008,13.34266 0.13351,17.59441 3.94221,3.10764 8.96597,2.16817 15.73505,-2.94254 6.08049,-4.59082 7.11596,-4.88351 7.95246,-2.24793 0.32152,1.01301 1.72922,2.91717 3.12823,4.23148 3.03405,2.85034 8.33449,3.05753 13.24586,0.51776 3.76122,-1.945 3.36083,-3.77801 -0.65003,-2.97584 -1.83446,0.36689 -3.50838,-0.0655 -5.03309,-1.30016 -2.19324,-1.77598 -2.30736,-2.6082 -2.85652,-20.83247 l -0.57202,-18.9826 12.98744,-4.81681 c 10.1881,-3.77859 14.07975,-5.77235 18.05523,-9.25 5.5192,-4.82806 6.2451,-5.17304 6.2451,-2.96799 0,0.80587 1.39662,3.05587 3.10359,5 3.3908,3.86191 6.80565,4.5082 12.79263,2.42113 4.01467,-1.39952 3.5195,-3.28592 -0.97323,-3.70763 -1.88265,-0.17671 -3.87299,-0.76105 -4.42299,-1.29853 -0.55,-0.53748 -1.46983,-9.065 -2.04406,-18.95004 -1.02363,-17.62109 -1.09751,-18.02619 -3.77529,-20.70146 -2.44533,-2.44304 -3.43516,-2.72385 -9.45594,-2.68262 -10.32648,0.0707 -18.0842,4.98475 -19.73502,12.50091 -0.35673,1.62417 -0.96272,2.95304 -1.34664,2.95304 -0.56425,0 -4.19473,-2.19448 -6.04571,-3.6544 -0.22147,-0.17468 0.79103,-1.25655 2.25,-2.40418 2.99609,-2.35672 3.46495,-5.98627 1.08123,-8.36999 -2.12413,-2.12414 -5.71403,-1.97661 -10.42857,0.42857 -4.98315,2.54222 -5.20168,2.52559 -8.36364,-0.63636 -5.11561,-5.11562 -3.66954,-6.67359 14.7242,-15.86364 5.50408,-2.75 10.46681,-5.75895 11.02829,-6.68655 0.78241,-1.2926 0.396,-2.56477 -1.65429,-5.44637 -1.47133,-2.0679 -2.54566,-3.88932 -2.38739,-4.04758 0.15827,-0.15827 15.5574,-0.97083 34.2203,-1.80568 56.27522,-2.51739 78.91354,-4.33205 101.43253,-8.13074 27.5095,-4.64053 39.49697,-10.73522 31.46541,-15.9977 -6.38353,-4.18265 -29.01163,-8.99589 -55.46541,-11.7981 -27.92871,-2.95844 -45.06019,-3.64083 -115.85281,-4.61473 -39.24405,-0.53988 -71.75655,-1.23112 -72.25,-1.53609 -0.49345,-0.30497 -0.89719,-1.85755 -0.89719,-3.45016 0,-3.11171 -0.35018,-2.96782 10.86368,-4.46406 7.52969,-1.00466 104.83433,-0.63231 122.13632,0.46738 28.42664,1.80675 55.1316,4.03286 59.39831,4.95139 2.25593,0.48566 6.80169,1.18055 10.10169,1.5442 17.37503,1.91468 35.53373,6.50385 45.4369,11.48307 8.59783,4.3229 9.52592,5.20584 13.0631,12.42756 2.0773,4.24115 2.9227,5.07557 5,4.93507 1.375,-0.093 10.60334,-0.2352 20.50743,-0.316 17.18247,-0.14019 18.35067,-0.0243 25.5,2.52884 20.59838,7.35613 34.01803,17.96471 42.96167,33.96231 l 4.4691,7.99394 0.5309,14.75199 c 0.29199,8.11359 0.1934,14.75109 -0.2191,14.75 -0.4125,-0.001 -0.75,0.88113 -0.75,1.9605 0,7.27729 -10.20732,24.18316 -20.6237,34.15801 -16.41432,15.71853 -36.59738,24.9425 -54.3763,24.85079 l -5.5,-0.0284 14.2404,-7.34244 c 7.83222,-4.03835 16.76155,-9.2875 19.84297,-11.6648 7.47484,-5.76679 19.12027,-18.43882 23.27893,-25.33106 5.21972,-8.65075 6.04558,-11.97639 6.09381,-24.5389 0.0543,-14.14707 -1.36666,-17.65096 -11.04521,-27.23592 -7.3028,-7.23218 -17.33233,-12.79967 -26.4109,-14.66094 -6.75828,-1.38557 -30.40793,-2.59631 -34.76136,-1.77961 l -3.50693,0.65791 -0.51249,23.22642 c -0.365,16.54186 -0.97741,25.09712 -2.12792,29.72642 -1.89214,7.61337 -6.42957,21.84268 -7.6531,24 -0.4679,0.825 -2.66911,4.73893 -4.89157,8.69762 -2.22246,3.95869 -7.09915,11.26468 -10.83709,16.23553 -7.40673,9.84974 -26.03239,29.28609 -32.08231,33.47868 -2.08408,1.44427 -5.07447,3.96744 -6.64532,5.60706 -1.57085,1.63961 -3.21398,2.98111 -3.65139,2.98111 -0.43741,0 -3.72665,1.79419 -7.30943,3.98709 -25.19389,15.42036 -50.80647,25.01842 -80.14771,30.03456 -17.63592,3.01501 -18.11341,2.93968 -22.87338,-3.6086 z"
       id="path70"
       transform="scale(0.26458333)" />
    <path
       style="opacity:1;fill:#ffb380;fill-opacity:1;fill-rule:nonzero;stroke:#d4eeff;stroke-width:0;stroke-linecap:butt;stroke-dasharray:none;stroke-opacity:1;paint-order:stroke fill markers"
       d="m 594.5,531.10131 c 0,-0.49429 -3.20454,-4.33009 -7.1212,-8.52401 -7.1802,-7.68849 -20.22158,-17.74626 -35.8788,-27.67046 -7.68,-4.8679 -20.38746,-13.56557 -25.46165,-17.42731 -1.87041,-1.4235 -1.88327,-1.62562 -0.27635,-4.34591 2.07186,-3.50738 1.4522,-4.27855 -2.3679,-2.94686 -3.44364,1.20046 -5.24162,0.12369 -6.67915,-3.99999 -1.33613,-3.83284 -0.15223,-6.1564 5.9354,-11.64899 6.78526,-6.12202 10.91687,-7.90475 16.41059,-7.08091 4.3717,0.65557 7.43906,-0.9758 7.43906,-3.95645 0,-1.54381 10.64598,-5.85025 12.60451,-5.09869 1.50529,0.57763 2.70157,6.03987 2.22715,10.16917 -0.30648,2.66761 -0.86307,3.02466 -7.33166,4.70326 -14.36862,3.72865 -19.48879,8.04095 -19.49626,16.42008 -0.006,6.18603 3.40451,9.80576 9.23769,9.80576 3.64397,0 5.39721,-0.74188 10.04367,-4.25 6.29606,-4.75357 7.32406,-5.05678 8.1647,-2.40817 0.32152,1.01301 1.6752,2.86643 3.00819,4.1187 2.91072,2.73448 8.82265,2.97994 13.5012,0.56058 3.66957,-1.89761 3.29901,-3.35939 -0.70272,-2.77206 -1.79748,0.26381 -3.68972,-0.27929 -5.18134,-1.48713 -2.28138,-1.84735 -2.36423,-2.45488 -2.84729,-20.87868 l -0.49754,-18.97596 10.38485,-3.83252 c 13.21726,-4.87781 17.06702,-6.84111 21.80111,-11.11807 4.2886,-3.87449 5.08374,-4.16489 5.08374,-1.85669 0,0.88 1.58715,3.18715 3.52701,5.12701 3.2261,3.2261 3.90857,3.484 7.99945,3.0229 C 625.51015,423.90639 627.95563,420 621,420 c -1.86008,0 -3.74521,-0.5625 -4.18917,-1.25 -0.44397,-0.6875 -1.30422,-9.27347 -1.91168,-19.07993 -1.07239,-17.31211 -1.18201,-17.90748 -3.77454,-20.5 -2.3744,-2.37441 -3.41499,-2.66597 -9.39734,-2.63308 -10.31129,0.0567 -18.08448,4.98346 -19.73758,12.50997 -0.35673,1.62417 -0.96272,2.95304 -1.34664,2.95304 -0.56525,0 -4.21313,-2.20597 -6.04979,-3.65848 -0.2237,-0.17691 0.7888,-1.42964 2.25,-2.78384 3.00536,-2.78527 3.39788,-5.67368 1.08531,-7.98625 -2.12413,-2.12414 -5.71403,-1.97661 -10.42857,0.42857 -2.15618,1.1 -4.40974,2 -5.00791,2 -1.67327,0 -5.99209,-5.07539 -5.99209,-7.04178 0,-2.06683 6.00137,-6.01041 18.32119,-12.03909 10.7346,-5.25296 11.81242,-6.77482 8.29716,-11.71539 -1.40742,-1.97806 -2.43345,-3.72197 -2.28007,-3.87535 0.15338,-0.15338 15.32751,-0.96625 33.72029,-1.80638 18.39279,-0.84013 40.64143,-1.99704 49.44143,-2.5709 53.01742,-3.45735 87.7932,-11.00041 86.30581,-18.72021 -0.76231,-3.95652 -18.15924,-9.20923 -42.05359,-12.69738 -28.25737,-4.12508 -72.99716,-6.38023 -131.75222,-6.64109 -18.975,-0.0842 -43.05,-0.432 -53.5,-0.7728 L 504,301.5 l -0.30915,-3.19359 c -0.33775,-3.48899 -0.89096,-3.24107 10.67671,-4.78479 7.60667,-1.01511 105.92062,-0.63417 123.13244,0.47711 63.44954,4.09662 97.29172,9.36234 113.5,17.66017 9.07289,4.64487 10.32274,5.79683 13.14084,12.1116 l 2.35207,5.27049 20.77352,-0.082 c 20.08463,-0.0793 21.02157,0.007 28.25355,2.58926 20.52214,7.32878 33.91431,17.90753 42.98002,33.95081 l 4.5,7.9635 0.5,14.86689 c 0.275,8.17679 0.1625,15.07426 -0.25,15.32772 -0.4125,0.25346 -0.75036,1.44678 -0.75079,2.65182 -0.002,6.33022 -10.60371,23.16104 -20.63468,32.75959 -16.72224,16.00137 -36.25287,24.97722 -54.2025,24.91027 L 782,463.95777 l 14.1888,-7.37335 c 16.13767,-8.38609 23.38749,-13.61001 32.338,-23.30145 13.87902,-15.02793 17.34433,-23.29614 16.80148,-40.08819 -0.42672,-13.1997 -1.7635,-16.30491 -10.85435,-25.21348 -7.18237,-7.03837 -15.89597,-12.03571 -25.04011,-14.36079 -6.46011,-1.6426 -32.13689,-3.17409 -36.63877,-2.18531 l -3.06435,0.67304 -0.50407,23.19588 c -0.41622,19.15364 -0.86773,24.59 -2.59095,31.19588 -2.90961,11.15385 -6.42248,21.39184 -8.70362,25.36602 -10.73934,18.71 -18.80488,29.2211 -33.61636,43.80918 C 715.82748,484.03539 702.18011,496 701.13232,496 c -0.23535,0 -3.31335,1.75296 -6.83999,3.89547 -8.54147,5.18912 -24.72862,13.26715 -37.17595,18.55227 C 638.98075,526.1481 594.5,535.13681 594.5,531.10131 Z"
       id="path71"
       transform="scale(0.26458333)" />
    <path
       style="opacity:1;fill:#ffb380;fill-opacity:1;fill-rule:nonzero;stroke:#d4eeff;stroke-width:0;stroke-linecap:butt;stroke-dasharray:none;stroke-opacity:1;paint-order:stroke fill markers"
       d="m 592.58,528.43318 c -4.7532,-6.97884 -17.45505,-17.51568 -36.86692,-30.58304 -10.84219,-7.29856 -22.30058,-15.01285 -25.46308,-17.14286 -6.06276,-4.08342 -6.56668,-5.04432 -4.25023,-8.1046 2.03172,-2.68411 0.97136,-3.66288 -2.61412,-2.41297 -2.58091,0.89971 -3.36409,0.77068 -4.91484,-0.80973 -1.01459,-1.03399 -2.15554,-3.15203 -2.53544,-4.70675 -0.61566,-2.5196 -0.0219,-3.47724 5.46448,-8.81253 7.38202,-7.1788 11.80273,-9.28235 17.66109,-8.40383 4.32419,0.64845 7.43906,-0.97106 7.43906,-3.86778 0,-1.12225 3.75254,-3.51873 6.5,-4.15109 0.55,-0.12659 2.23074,-0.54901 3.73497,-0.93872 2.3692,-0.61379 2.87715,-0.33458 3.79813,2.08778 0.58474,1.53798 0.929,4.60914 0.76503,6.8248 L 561,451.44033 l -7.5,2.09509 c -14.68728,4.10282 -18.98889,7.78482 -18.99626,16.26003 -0.003,3.21084 0.60577,4.90497 2.41014,6.70934 4.87671,4.87671 10.19735,4.13924 18.69532,-2.59128 4.33171,-3.43078 5.5356,-3.60801 6.38252,-0.9396 1.75249,5.52161 10.39544,7.74149 16.80794,4.31701 L 582,475.58183 l -4.28634,-0.61297 c -7.36798,-1.05367 -7.50528,-1.44346 -8.01576,-22.75656 l -0.45187,-18.86604 10.37698,-3.83761 c 13.58769,-5.02499 15.47211,-5.98065 21.22836,-10.76576 3.84709,-3.19805 5.03422,-3.74411 5.73469,-2.63789 0.48582,0.76725 0.89021,1.9175 0.89863,2.55611 0.008,0.6386 1.45709,2.37428 3.21927,3.85706 2.69234,2.26545 3.88989,2.61864 7.49946,2.21179 7.3968,-0.83373 9.63417,-4.72996 2.71612,-4.72996 -2.65433,0 -3.67482,-0.52512 -4.3725,-2.25 -0.50055,-1.2375 -1.34151,-9.84038 -1.8688,-19.11752 -0.92597,-16.29119 -1.04869,-16.95746 -3.59182,-19.5 -2.3424,-2.34187 -3.37568,-2.62422 -9.35975,-2.55763 -10.38601,0.11556 -18.09265,4.98551 -19.73698,12.47211 -0.75967,3.45873 -0.80454,3.47084 -4.5854,1.23743 -3.42491,-2.02315 -3.60018,-2.84159 -0.9161,-4.27807 2.89047,-1.54693 3.64302,-5.65136 1.47534,-8.04661 -2.26358,-2.50123 -4.40994,-2.46855 -10.52065,0.16021 -4.62141,1.98808 -5.08285,2.01839 -7.41951,0.48735 -2.86444,-1.87685 -4.25233,-6.024 -2.65864,-7.94428 0.59844,-0.72107 6.9156,-4.35447 14.03814,-8.07421 7.12254,-3.71974 13.18374,-7.37211 13.46935,-8.11637 0.2856,-0.74427 -0.60356,-3.00779 -1.9759,-5.03005 -1.37234,-2.02226 -2.32388,-3.84813 -2.11454,-4.05748 0.20935,-0.20934 14.96909,-1.042 32.79943,-1.85034 65.83822,-2.9848 93.91617,-5.65248 116.91879,-11.10844 15.32754,-3.63551 23.07002,-8.63479 18.55982,-11.98398 -8.77731,-6.51784 -43.81043,-12.62416 -88.55982,-15.43609 -9.075,-0.57025 -47.71032,-1.48288 -85.85627,-2.02808 -38.14594,-0.5452 -69.75844,-1.23983 -70.25,-1.54363 -0.49155,-0.30379 -0.89373,-1.85541 -0.89373,-3.44802 0,-2.49801 0.44633,-2.96412 3.25,-3.39409 1.7875,-0.27412 4.89948,-0.75777 6.91551,-1.07477 6.39195,-1.00507 106.61099,-0.61855 124.33449,0.47952 60.63552,3.75673 96.89605,9.42499 113,17.66421 9.07124,4.64109 10.32246,5.79395 13.1397,12.10675 l 2.35093,5.26792 21.25468,-0.0532 21.25469,-0.0532 7.96366,3.093 c 22.54464,8.75609 34.40636,18.92693 43.84954,37.59882 2.39513,4.73586 2.60146,6.18954 2.74134,19.31377 0.0832,7.80584 -0.12004,14.46375 -0.45164,14.79534 -0.33159,0.3316 -0.60326,1.5404 -0.60369,2.68624 -0.002,6.19047 -10.59697,22.96028 -20.66103,32.70353 -16.29787,15.77833 -36.2655,24.93829 -54.17615,24.85276 l -5.66203,-0.027 13,-6.7396 c 20.17478,-10.45923 29.2502,-17.62779 39.86579,-31.48952 9.07884,-11.85505 10.12349,-14.97137 10.12928,-30.21681 0.004,-11.43197 -0.25593,-13.48247 -2.15777,-17 -6.89107,-12.74531 -23.92112,-24.08382 -38.8373,-25.85764 -10.09851,-1.20091 -26.39427,-1.83602 -30.27712,-1.18001 l -3.99266,0.67455 -0.50383,23.18155 c -0.53023,24.39653 -1.13607,28.40598 -6.97824,46.18155 -6.51772,19.83104 -28.51009,47.93975 -53.74815,68.69615 -10.15755,8.35382 -30.30522,19.42004 -52,28.56129 -13.36584,5.63179 -46.41016,13.25393 -57.38099,13.23573 -3.59503,-0.006 -4.42686,-0.45884 -6.53901,-3.55999 z"
       id="path72"
       transform="scale(0.26458333)" />
    <path
       style="opacity:1;fill:#ffb380;fill-opacity:1;fill-rule:nonzero;stroke:#d4eeff;stroke-width:0;stroke-linecap:butt;stroke-dasharray:none;stroke-opacity:1;paint-order:stroke fill markers"
       d="m 65.881249,40.216666 c 0,4.674301 0,9.348616 0,14.022917"
       id="path73"
       inkscape:path-effect="#path-effect73"
       inkscape:original-d="M 65.881249,40.216666 V 54.239583" />
    <path
       style="opacity:1;fill:#ffb380;fill-opacity:1;fill-rule:nonzero;stroke:#d4eeff;stroke-width:0;stroke-linecap:butt;stroke-dasharray:none;stroke-opacity:1;paint-order:stroke fill markers"
       d="m 31.485416,68.030169 c 0.176389,4.839937 0.352778,9.67989 0.529167,14.519827"
       id="path74"
       inkscape:path-effect="#path-effect74"
       inkscape:original-d="m 31.485416,68.030169 0.529167,14.519827"
       transform="matrix(1.0880489,0,0,0.98233667,121.70383,-11.707038)" />
    <path
       style="opacity:1;fill:#ffb380;fill-opacity:1;fill-rule:evenodd;stroke:#000000;stroke-width:0.206769;stroke-linecap:butt;stroke-dasharray:none;stroke-opacity:1;paint-order:stroke fill markers"
       d="m 132.35794,74.076091 c 22.06603,-20.488954 -17.69199,-27.942409 2.74745,-49.93878 -27.54964,13.775225 5.40082,32.746935 -2.74745,49.93878 z"
       id="path82"
       sodipodi:nodetypes="ccc" />
    <path
       style="opacity:1;fill:#ffb380;fill-opacity:1;fill-rule:evenodd;stroke:#000000;stroke-width:0.206769;stroke-linecap:butt;stroke-dasharray:none;stroke-opacity:1;paint-order:stroke fill markers"
       d="m 156.7419,74.561526 c 22.06603,-20.488954 -17.69199,-27.942409 2.74745,-49.93878 -27.54964,13.775225 5.40082,32.746935 -2.74745,49.93878 z"
       id="path83"
       sodipodi:nodetypes="ccc" />
    <path
       style="opacity:1;fill:#ffb380;fill-opacity:1;fill-rule:evenodd;stroke:#000000;stroke-width:0.206769;stroke-linecap:butt;stroke-dasharray:none;stroke-opacity:1;paint-order:stroke fill markers"
       d="m 144.29435,74.076091 c 22.06603,-20.488954 -17.69199,-27.942409 2.74745,-49.93878 -27.54964,13.775225 5.40082,32.746935 -2.74745,49.93878 z"
       id="path84"
       sodipodi:nodetypes="ccc" />
  </g>
</svg>
